<?xml version="1.0" encoding="UTF-8"?>
<!DOCTYPE svg PUBLIC "-//W3C//DTD SVG 1.1//EN" "http://www.w3.org/Graphics/SVG/1.1/DTD/svg11.dtd">
<svg xmlns="http://www.w3.org/2000/svg" version="1.1" width="350px" height="350px" style="shape-rendering:geometricPrecision; text-rendering:geometricPrecision; image-rendering:optimizeQuality; fill-rule:evenodd; clip-rule:evenodd" xmlns:xlink="http://www.w3.org/1999/xlink">
<g><path style="opacity:1" fill="#1d3c72" d="M 96.5,246.5 C 93.7105,242.584 91.7105,238.251 90.5,233.5C 96.7762,228.893 102.443,223.559 107.5,217.5C 117.562,207.972 129.562,202.472 143.5,201C 147.894,199.418 151.561,196.918 154.5,193.5C 155.289,193.217 155.956,192.717 156.5,192C 154.292,191.809 152.292,191.309 150.5,190.5C 161.292,187.646 171.959,188.146 182.5,192C 187.167,192.667 191.833,192.667 196.5,192C 198.478,189.503 198.978,186.669 198,183.5C 197.292,182.619 196.458,181.953 195.5,181.5C 196.263,180.732 197.263,180.232 198.5,180C 198.272,179.601 197.938,179.435 197.5,179.5C 197.5,178.833 197.5,178.167 197.5,177.5C 198.167,177.833 198.833,178.167 199.5,178.5C 200.306,181.285 200.972,184.119 201.5,187C 201.468,189.895 200.468,192.395 198.5,194.5C 198.624,195.107 198.957,195.44 199.5,195.5C 199.158,196.338 198.492,196.672 197.5,196.5C 191.225,196.615 184.891,196.282 178.5,195.5C 177.377,194.243 176.711,194.576 176.5,196.5C 175.288,195.77 174.288,194.77 173.5,193.5C 173.167,194 172.833,194.5 172.5,195C 182.8,212.814 198.133,219.814 218.5,216C 227.595,213.721 234.928,208.888 240.5,201.5C 242.522,199.469 244.189,197.135 245.5,194.5C 248.953,186.552 250.286,178.218 249.5,169.5C 249.737,168.209 249.404,167.209 248.5,166.5C 247.355,159.214 244.355,152.881 239.5,147.5C 239.068,146.29 238.401,145.29 237.5,144.5C 232.253,139.04 225.92,135.374 218.5,133.5C 217.833,132.167 217.167,132.167 216.5,133.5C 204.801,131.438 194.468,134.105 185.5,141.5C 184.29,141.932 183.29,142.599 182.5,143.5C 174.987,150.525 170.654,159.192 169.5,169.5C 168.9,170.9 167.9,171.9 166.5,172.5C 162.075,171.121 158.075,168.954 154.5,166C 156.256,165.86 157.922,166.36 159.5,167.5C 159.653,163.257 159.82,158.924 160,154.5C 160.333,155.167 160.667,155.833 161,156.5C 165.484,153.175 168.651,148.841 170.5,143.5C 176.061,141.217 180.728,137.717 184.5,133C 189.568,132.144 194.568,130.978 199.5,129.5C 205.125,130.408 210.792,130.742 216.5,130.5C 216.822,128.278 216.155,126.444 214.5,125C 203.344,119.369 191.678,118.036 179.5,121C 173.5,125 167.5,129 161.5,133C 154.873,135.65 148.206,137.984 141.5,140C 131.167,151.667 120.833,163.333 110.5,175C 104.758,177.597 99.4243,180.763 94.5,184.5C 92.9722,141.437 112.306,111.604 152.5,95C 189.486,84.6191 220.986,93.4524 247,121.5C 273.294,156.737 274.294,192.737 250,229.5C 226.488,258.005 196.654,268.171 160.5,260C 144.293,254.62 130.293,245.786 118.5,233.5C 112.167,236.667 105.833,239.833 99.5,243C 97.9371,243.759 96.9371,244.926 96.5,246.5 Z"/></g>
<g><path style="opacity:1" fill="#18a4e6" d="M 318.5,165.5 C 319.309,177.482 319.642,189.482 319.5,201.5C 313.176,250.651 287.176,284.817 241.5,304C 187.883,320.226 143.05,307.059 107,264.5C 102.846,258.855 99.3464,252.855 96.5,246.5C 96.9371,244.926 97.9371,243.759 99.5,243C 105.833,239.833 112.167,236.667 118.5,233.5C 130.293,245.786 144.293,254.62 160.5,260C 196.654,268.171 226.488,258.005 250,229.5C 274.294,192.737 273.294,156.737 247,121.5C 220.986,93.4524 189.486,84.6191 152.5,95C 112.306,111.604 92.9722,141.437 94.5,184.5C 90.5663,187.255 86.733,190.255 83,193.5C 82.5045,195.473 82.3379,197.473 82.5,199.5C 78.6609,156.53 92.6609,120.363 124.5,91C 168.058,57.7121 214.058,54.0455 262.5,80C 293.813,100.159 312.48,128.659 318.5,165.5 Z"/></g>
<g><path style="opacity:1" fill="#edf8fd" d="M 262.5,107.5 C 266.367,106.775 269.034,108.108 270.5,111.5C 270.167,112.167 269.833,112.833 269.5,113.5C 268.339,109.391 266.006,108.557 262.5,111C 257.807,113.689 257.473,116.689 261.5,120C 258.128,120.358 256.461,118.691 256.5,115C 257.582,111.753 259.582,109.253 262.5,107.5 Z"/></g>
<g><path style="opacity:1" fill="#e9f6fd" d="M 242.5,85.5 C 247.647,86.4653 249.814,89.4653 249,94.5C 247.644,95.3802 246.144,95.7135 244.5,95.5C 244.336,98.1873 244.503,100.854 245,103.5C 249.466,100.514 254.299,98.514 259.5,97.5C 258.015,102.786 255.848,107.786 253,112.5C 252.308,111.975 251.808,111.308 251.5,110.5C 252.984,107.454 252.15,105.121 249,103.5C 246.524,105.815 244.191,105.482 242,102.5C 241.708,100.674 241.875,98.8405 242.5,97C 242.491,95.5962 241.991,94.4296 241,93.5C 239.954,95.0905 238.787,96.5905 237.5,98C 236.517,98.5908 235.85,98.2575 235.5,97C 238.07,93.2738 240.403,89.4405 242.5,85.5 Z"/></g>
<g><path style="opacity:1" fill="#36b1ed" d="M 254.5,100.5 C 255.239,100.369 255.906,100.536 256.5,101C 255.54,102.419 254.707,103.919 254,105.5C 250.791,103.532 250.958,101.865 254.5,100.5 Z"/></g>
<g><path style="opacity:1" fill="#39afed" d="M 243.5,88.5 C 246.487,88.9478 247.487,90.4478 246.5,93C 242.668,93.514 241.668,92.014 243.5,88.5 Z"/></g>
<g><path style="opacity:1" fill="#f0f9fd" d="M 231.5,79.5 C 234.262,80.3795 236.929,81.5462 239.5,83C 239,83.5 238.5,84 238,84.5C 235.373,81.7926 233.206,81.9593 231.5,85C 232.444,86.4768 233.777,87.4768 235.5,88C 233.765,88.6514 232.098,88.4847 230.5,87.5C 227.68,90.9013 228.514,93.2346 233,94.5C 233.667,95.1667 233.667,95.8333 233,96.5C 230.913,95.2062 228.746,94.0395 226.5,93C 225.978,92.4387 225.645,91.772 225.5,91C 227.633,87.2343 229.633,83.401 231.5,79.5 Z"/></g>
<g><path style="opacity:1" fill="#e8f6fd" d="M 215.5,73.5 C 224.666,73.8179 227.5,78.1512 224,86.5C 219.872,90.4463 215.705,90.4463 211.5,86.5C 213.242,82.2746 214.576,77.9413 215.5,73.5 Z"/></g>
<g><path style="opacity:1" fill="#38aeec" d="M 217.5,76.5 C 221.24,75.7415 222.907,77.2415 222.5,81C 221.926,86.7911 219.26,88.2911 214.5,85.5C 215.705,82.5504 216.705,79.5504 217.5,76.5 Z"/></g>
<g><path style="opacity:1" fill="#e9f6fd" d="M 202.5,70.5 C 205.625,70.8647 208.625,71.698 211.5,73C 209.19,73.4966 206.857,73.6633 204.5,73.5C 204.5,74.8333 204.5,76.1667 204.5,77.5C 206.288,77.2148 207.955,77.5481 209.5,78.5C 207.604,79.4656 205.604,79.7989 203.5,79.5C 203.5,81.1667 203.5,82.8333 203.5,84.5C 205.604,84.2011 207.604,84.5344 209.5,85.5C 208.667,85.8333 207.833,86.1667 207,86.5C 204.863,85.9233 202.696,85.59 200.5,85.5C 201.353,80.5296 202.02,75.5296 202.5,70.5 Z"/></g>
<g><path style="opacity:1" fill="#f7fcfe" d="M 192.5,72.5 C 192.5,73.8333 192.5,75.1667 192.5,76.5C 199.167,77.1667 199.167,77.8333 192.5,78.5C 192.975,81.0821 192.308,83.0821 190.5,84.5C 190.5,79.8333 190.5,75.1667 190.5,70.5C 193.187,70.3359 195.854,70.5026 198.5,71C 196.292,71.1909 194.292,71.6909 192.5,72.5 Z"/></g>
<g><path style="opacity:1" fill="#8cd3f5" d="M 192.5,72.5 C 194.292,71.6909 196.292,71.1909 198.5,71C 195.854,70.5026 193.187,70.3359 190.5,70.5C 190.5,75.1667 190.5,79.8333 190.5,84.5C 189.513,79.6946 189.179,74.6946 189.5,69.5C 192.833,69.5 196.167,69.5 199.5,69.5C 199.5,70.5 199.5,71.5 199.5,72.5C 197.167,72.5 194.833,72.5 192.5,72.5 Z"/></g>
<g><path style="opacity:1" fill="#e7f5fd" d="M 273.5,116.5 C 275.332,117.14 275.665,118.14 274.5,119.5C 270.535,121.635 266.702,123.968 263,126.5C 261.511,125.576 261.344,124.576 262.5,123.5C 266.401,121.392 270.067,119.059 273.5,116.5 Z"/></g>
<g><path style="opacity:1" fill="#fbfbfb" d="M 166.5,172.5 C 175.872,176.263 185.538,179.263 195.5,181.5C 196.458,181.953 197.292,182.619 198,183.5C 198.978,186.669 198.478,189.503 196.5,192C 191.833,192.667 187.167,192.667 182.5,192C 171.959,188.146 161.292,187.646 150.5,190.5C 148.571,190.231 146.905,190.731 145.5,192C 148.695,192.181 151.695,192.681 154.5,193.5C 151.561,196.918 147.894,199.418 143.5,201C 129.562,202.472 117.562,207.972 107.5,217.5C 101.167,221.5 94.8333,225.5 88.5,229.5C 84.9185,219.837 82.9185,209.837 82.5,199.5C 82.3379,197.473 82.5045,195.473 83,193.5C 86.733,190.255 90.5663,187.255 94.5,184.5C 99.4243,180.763 104.758,177.597 110.5,175C 120.833,163.333 131.167,151.667 141.5,140C 148.206,137.984 154.873,135.65 161.5,133C 167.5,129 173.5,125 179.5,121C 191.678,118.036 203.344,119.369 214.5,125C 216.155,126.444 216.822,128.278 216.5,130.5C 210.792,130.742 205.125,130.408 199.5,129.5C 194.568,130.978 189.568,132.144 184.5,133C 180.728,137.717 176.061,141.217 170.5,143.5C 168.651,148.841 165.484,153.175 161,156.5C 160.667,155.833 160.333,155.167 160,154.5C 159.82,158.924 159.653,163.257 159.5,167.5C 157.922,166.36 156.256,165.86 154.5,166C 158.075,168.954 162.075,171.121 166.5,172.5 Z"/></g>
<g><path style="opacity:1" fill="#ecf7fd" d="M 272.5,124.5 C 277.319,124.153 280.319,126.32 281.5,131C 280.042,135.499 276.875,137.999 272,138.5C 267.199,136.9 265.533,133.567 267,128.5C 268.812,127.023 270.645,125.69 272.5,124.5 Z"/></g>
<g><path style="opacity:1" fill="#2cabeb" d="M 272.5,127.5 C 275.604,126.971 277.937,127.971 279.5,130.5C 277.288,134.439 273.954,135.939 269.5,135C 267.853,131.471 268.853,128.971 272.5,127.5 Z"/></g>
<g><path style="opacity:1" fill="#f8f9f9" d="M 216.5,133.5 C 216.859,135.371 217.859,136.871 219.5,138C 214.545,139.476 210.212,141.976 206.5,145.5C 201.171,146.261 195.838,146.928 190.5,147.5C 188.117,146.115 186.45,144.115 185.5,141.5C 194.468,134.105 204.801,131.438 216.5,133.5 Z"/></g>
<g><path style="opacity:1" fill="#eaedef" d="M 218.5,133.5 C 225.92,135.374 232.253,139.04 237.5,144.5C 236.201,146.099 234.535,146.599 232.5,146C 227.278,142.229 222.278,138.229 217.5,134C 217.728,133.601 218.062,133.435 218.5,133.5 Z"/></g>
<g><path style="opacity:1" fill="#f4f6f7" d="M 182.5,143.5 C 185.066,144.908 186.733,147.075 187.5,150C 186.48,153.209 185.314,156.376 184,159.5C 179.377,163.286 174.877,167.286 170.5,171.5C 169.702,171.043 169.369,170.376 169.5,169.5C 170.654,159.192 174.987,150.525 182.5,143.5 Z"/></g>
<g><path style="opacity:1" fill="#f3f4f6" d="M 239.5,147.5 C 244.355,152.881 247.355,159.214 248.5,166.5C 247.685,168.908 246.019,169.741 243.5,169C 241.425,164.921 238.592,161.421 235,158.5C 234.501,154.848 234.335,151.182 234.5,147.5C 236.167,147.5 237.833,147.5 239.5,147.5 Z"/></g>
<g><path style="opacity:1" fill="#e9f6fd" d="M 279.5,139.5 C 281.167,139.5 282.833,139.5 284.5,139.5C 283.221,143.302 280.888,146.469 277.5,149C 280.794,148.635 284.127,148.135 287.5,147.5C 287.5,148.5 287.5,149.5 287.5,150.5C 282.704,150.866 278.037,151.866 273.5,153.5C 272.417,152.635 272.251,151.635 273,150.5C 275.5,148 278,145.5 280.5,143C 277.629,142.922 274.795,143.422 272,144.5C 271.5,144.167 271,143.833 270.5,143.5C 273.378,141.922 276.378,140.588 279.5,139.5 Z"/></g>
<g><path style="opacity:1" fill="#ecf7fd" d="M 277.5,163.5 C 282.167,163.5 286.833,163.5 291.5,163.5C 291.664,166.187 291.497,168.854 291,171.5C 289.204,172.767 287.371,172.767 285.5,171.5C 282.959,174.1 280.459,174.1 278,171.5C 277.503,168.854 277.336,166.187 277.5,163.5 Z"/></g>
<g><path style="opacity:1" fill="#22a9ea" d="M 279.5,166.5 C 280.833,166.5 282.167,166.5 283.5,166.5C 283.5,167.833 283.5,169.167 283.5,170.5C 282.167,170.5 280.833,170.5 279.5,170.5C 279.5,169.167 279.5,167.833 279.5,166.5 Z"/></g>
<g><path style="opacity:1" fill="#66c0f1" d="M 285.5,165.5 C 287.167,165.5 288.833,165.5 290.5,165.5C 290.5,166.833 290.5,168.167 290.5,169.5C 288.833,169.5 287.167,169.5 285.5,169.5C 285.5,168.167 285.5,166.833 285.5,165.5 Z"/></g>
<g><path style="opacity:1" fill="#f8f9f9" d="M 199.5,195.5 C 198.957,195.44 198.624,195.107 198.5,194.5C 200.468,192.395 201.468,189.895 201.5,187C 200.972,184.119 200.306,181.285 199.5,178.5C 199.5,177.167 199.5,175.833 199.5,174.5C 204.358,173.404 208.691,171.238 212.5,168C 214.5,167.333 216.5,167.333 218.5,168C 219.884,174.489 221.884,180.822 224.5,187C 221.56,192.274 217.56,196.608 212.5,200C 207.61,200.227 203.277,198.727 199.5,195.5 Z"/></g>
<g><path style="opacity:1" fill="#f5f6f7" d="M 249.5,169.5 C 250.286,178.218 248.953,186.552 245.5,194.5C 244.5,194.5 243.5,194.5 242.5,194.5C 242.232,191.26 241.566,188.094 240.5,185C 241.744,181.19 242.911,177.356 244,173.5C 245.451,171.536 247.284,170.203 249.5,169.5 Z"/></g>
<g><path style="opacity:1" fill="#eff9fd" d="M 277.5,175.5 C 282.489,177.328 287.156,179.661 291.5,182.5C 287.374,184.824 282.874,186.491 278,187.5C 276.355,185.265 277.188,184.265 280.5,184.5C 280.666,180.998 279.666,177.998 277.5,175.5 Z"/></g>
<g><path style="opacity:1" fill="#384872" d="M 218.5,133.5 C 218.062,133.435 217.728,133.601 217.5,134C 222.278,138.229 227.278,142.229 232.5,146C 234.535,146.599 236.201,146.099 237.5,144.5C 238.401,145.29 239.068,146.29 239.5,147.5C 237.833,147.5 236.167,147.5 234.5,147.5C 234.335,151.182 234.501,154.848 235,158.5C 238.592,161.421 241.425,164.921 243.5,169C 246.019,169.741 247.685,168.908 248.5,166.5C 249.404,167.209 249.737,168.209 249.5,169.5C 247.284,170.203 245.451,171.536 244,173.5C 242.911,177.356 241.744,181.19 240.5,185C 241.566,188.094 242.232,191.26 242.5,194.5C 243.5,194.5 244.5,194.5 245.5,194.5C 244.189,197.135 242.522,199.469 240.5,201.5C 239.798,200.884 238.798,200.884 237.5,201.5C 239.016,199.814 240.35,197.981 241.5,196C 240.793,192.8 239.96,189.633 239,186.5C 238.586,186.043 238.086,185.709 237.5,185.5C 234.172,186.499 230.839,187.499 227.5,188.5C 223.132,194.197 217.798,198.864 211.5,202.5C 210.518,205.096 209.851,207.762 209.5,210.5C 217.993,210.377 225.993,208.377 233.5,204.5C 227.649,209.4 220.816,212.067 213,212.5C 208.53,211.736 204.03,211.403 199.5,211.5C 201.833,210.833 204.167,210.167 206.5,209.5C 208.02,207.11 209.02,204.443 209.5,201.5C 204.999,200.913 200.999,199.246 197.5,196.5C 198.492,196.672 199.158,196.338 199.5,195.5C 203.277,198.727 207.61,200.227 212.5,200C 217.56,196.608 221.56,192.274 224.5,187C 221.884,180.822 219.884,174.489 218.5,168C 216.5,167.333 214.5,167.333 212.5,168C 208.691,171.238 204.358,173.404 199.5,174.5C 199.5,175.833 199.5,177.167 199.5,178.5C 198.833,178.167 198.167,177.833 197.5,177.5C 193.89,171.89 189.223,167.223 183.5,163.5C 179.275,165.391 175.608,168.058 172.5,171.5C 173.381,172.971 174.714,173.804 176.5,174C 183.705,175.125 190.705,176.959 197.5,179.5C 197.938,179.435 198.272,179.601 198.5,180C 197.263,180.232 196.263,180.732 195.5,181.5C 185.538,179.263 175.872,176.263 166.5,172.5C 167.9,171.9 168.9,170.9 169.5,169.5C 169.369,170.376 169.702,171.043 170.5,171.5C 174.877,167.286 179.377,163.286 184,159.5C 185.314,156.376 186.48,153.209 187.5,150C 186.733,147.075 185.066,144.908 182.5,143.5C 183.29,142.599 184.29,141.932 185.5,141.5C 186.45,144.115 188.117,146.115 190.5,147.5C 195.838,146.928 201.171,146.261 206.5,145.5C 210.212,141.976 214.545,139.476 219.5,138C 217.859,136.871 216.859,135.371 216.5,133.5C 217.167,132.167 217.833,132.167 218.5,133.5 Z"/></g>
<g><path style="opacity:1" fill="#f1f3f5" d="M 197.5,177.5 C 197.5,178.167 197.5,178.833 197.5,179.5C 190.705,176.959 183.705,175.125 176.5,174C 174.714,173.804 173.381,172.971 172.5,171.5C 175.608,168.058 179.275,165.391 183.5,163.5C 189.223,167.223 193.89,171.89 197.5,177.5 Z"/></g>
<g><path style="opacity:1" fill="#fafbfb" d="M 230.5,160.5 C 231.873,160.343 233.207,160.51 234.5,161C 237.786,164.444 240.453,168.277 242.5,172.5C 241.434,176.197 240.268,179.864 239,183.5C 234.716,185.163 230.383,185.496 226,184.5C 224.265,179.129 222.432,173.796 220.5,168.5C 223.864,165.825 227.197,163.158 230.5,160.5 Z"/></g>
<g><path style="opacity:1" fill="#f8f9f9" d="M 191.5,148.5 C 196.214,148.173 200.88,148.507 205.5,149.5C 207.444,154.999 209.778,160.332 212.5,165.5C 208.996,167.418 205.663,169.584 202.5,172C 200.956,173.187 199.289,173.52 197.5,173C 193.478,168.978 189.478,164.978 185.5,161C 186.468,156.22 188.468,152.054 191.5,148.5 Z"/></g>
<g><path style="opacity:1" fill="#f7f7f8" d="M 218.5,139.5 C 223.394,141.618 228.061,144.285 232.5,147.5C 233.489,151.107 233.823,154.774 233.5,158.5C 228.324,159.502 223.991,162.002 220.5,166C 218.231,166.758 216.064,166.591 214,165.5C 212.083,159.415 209.583,153.581 206.5,148C 210.391,144.899 214.391,142.066 218.5,139.5 Z"/></g>
<g><path style="opacity:0.656" fill="#0f587c" d="M 318.5,165.5 C 320.007,172.438 320.673,179.604 320.5,187C 320.499,192.012 320.166,196.845 319.5,201.5C 319.642,189.482 319.309,177.482 318.5,165.5 Z"/></g>
<g><path style="opacity:1" fill="#35b1ed" d="M 282.5,180.5 C 289.167,181.5 289.167,182.5 282.5,183.5C 282.5,182.5 282.5,181.5 282.5,180.5 Z"/></g>
<g><path style="opacity:1" fill="#83939f" d="M 184.5,181.5 C 185.764,183.772 185.598,186.105 184,188.5C 183.666,186.153 183.833,183.819 184.5,181.5 Z"/></g>
<g><path style="opacity:1" fill="#f9fafa" d="M 237.5,201.5 C 235.596,201.738 234.262,202.738 233.5,204.5C 225.993,208.377 217.993,210.377 209.5,210.5C 209.851,207.762 210.518,205.096 211.5,202.5C 217.798,198.864 223.132,194.197 227.5,188.5C 230.839,187.499 234.172,186.499 237.5,185.5C 238.086,185.709 238.586,186.043 239,186.5C 239.96,189.633 240.793,192.8 241.5,196C 240.35,197.981 239.016,199.814 237.5,201.5 Z"/></g>
<g><path style="opacity:1" fill="#e6f5fc" d="M 275.5,190.5 C 280.433,191.587 285.433,192.253 290.5,192.5C 290.5,193.5 290.5,194.5 290.5,195.5C 285.868,194.624 281.201,193.957 276.5,193.5C 276.785,195.288 276.452,196.955 275.5,198.5C 274.386,195.844 274.386,193.177 275.5,190.5 Z"/></g>
<g><path style="opacity:1" fill="#a5adc0" d="M 150.5,190.5 C 152.292,191.309 154.292,191.809 156.5,192C 155.956,192.717 155.289,193.217 154.5,193.5C 151.695,192.681 148.695,192.181 145.5,192C 146.905,190.731 148.571,190.231 150.5,190.5 Z"/></g>
<g><path style="opacity:1" fill="#686e88" d="M 178.5,195.5 C 177.475,195.897 177.308,196.563 178,197.5C 180.285,199.907 182.451,202.407 184.5,205C 182.613,205.163 181.113,204.329 180,202.5C 178.579,200.595 177.412,198.595 176.5,196.5C 176.711,194.576 177.377,194.243 178.5,195.5 Z"/></g>
<g><path style="opacity:1" fill="#eef8fd" d="M 274.5,201.5 C 279.039,200.957 282.873,202.29 286,205.5C 286.947,212.885 283.78,215.719 276.5,214C 270.683,210.599 270.016,206.432 274.5,201.5 Z"/></g>
<g><path style="opacity:1" fill="#32aceb" d="M 275.5,203.5 C 280.789,203.313 283.623,205.646 284,210.5C 280.791,211.854 277.624,211.687 274.5,210C 273.144,207.586 273.478,205.419 275.5,203.5 Z"/></g>
<g><path style="opacity:1" fill="#eff1f2" d="M 176.5,196.5 C 177.412,198.595 178.579,200.595 180,202.5C 181.113,204.329 182.613,205.163 184.5,205C 182.451,202.407 180.285,199.907 178,197.5C 177.308,196.563 177.475,195.897 178.5,195.5C 184.891,196.282 191.225,196.615 197.5,196.5C 200.999,199.246 204.999,200.913 209.5,201.5C 209.02,204.443 208.02,207.11 206.5,209.5C 202.154,209.334 197.821,209.501 193.5,210C 195.436,210.813 197.436,211.313 199.5,211.5C 204.03,211.403 208.53,211.736 213,212.5C 220.816,212.067 227.649,209.4 233.5,204.5C 235.404,204.262 236.738,203.262 237.5,201.5C 238.798,200.884 239.798,200.884 240.5,201.5C 234.928,208.888 227.595,213.721 218.5,216C 198.133,219.814 182.8,212.814 172.5,195C 172.833,194.5 173.167,194 173.5,193.5C 174.288,194.77 175.288,195.77 176.5,196.5 Z"/></g>
<g><path style="opacity:1" fill="#8390a9" d="M 206.5,209.5 C 204.167,210.167 201.833,210.833 199.5,211.5C 197.436,211.313 195.436,210.813 193.5,210C 197.821,209.501 202.154,209.334 206.5,209.5 Z"/></g>
<g><path style="opacity:1" fill="#646e8b" d="M 237.5,201.5 C 236.738,203.262 235.404,204.262 233.5,204.5C 234.262,202.738 235.596,201.738 237.5,201.5 Z"/></g>
<g><path style="opacity:1" fill="#f0f9fd" d="M 268.5,214.5 C 273.292,216.062 277.626,218.395 281.5,221.5C 277.573,222.655 273.573,223.488 269.5,224C 271.67,225.586 274.004,226.92 276.5,228C 277.711,228.893 277.711,229.726 276.5,230.5C 272.007,228.421 267.674,226.088 263.5,223.5C 263.709,222.914 264.043,222.414 264.5,222C 268.5,221.667 272.5,221.333 276.5,221C 273.661,219.08 270.661,217.413 267.5,216C 268.056,215.617 268.389,215.117 268.5,214.5 Z"/></g>
<g><path style="opacity:1" fill="#2996d0" d="M 107.5,217.5 C 102.443,223.559 96.7762,228.893 90.5,233.5C 89.6554,232.329 88.9887,230.995 88.5,229.5C 94.8333,225.5 101.167,221.5 107.5,217.5 Z"/></g>
<g><path style="opacity:1" fill="#eef8fd" d="M 261.5,227.5 C 266.052,229.713 270.052,232.713 273.5,236.5C 273,236.833 272.5,237.167 272,237.5C 268.099,236.521 264.266,235.688 260.5,235C 262.458,237.748 264.291,240.582 266,243.5C 266.749,244.635 266.583,245.635 265.5,246.5C 261.228,244.226 257.228,241.559 253.5,238.5C 256.323,238.035 258.823,239.035 261,241.5C 260.189,238.859 259.022,236.192 257.5,233.5C 260.422,233.101 263.422,232.934 266.5,233C 263.921,231.924 262.254,230.091 261.5,227.5 Z"/></g>
<g><path style="opacity:1" fill="#eaf7fd" d="M 250.5,240.5 C 251.496,240.414 252.329,240.748 253,241.5C 255.694,245.879 257.527,250.546 258.5,255.5C 253.269,253.885 248.269,251.718 243.5,249C 244.025,248.308 244.692,247.808 245.5,247.5C 248.546,248.984 250.879,248.15 252.5,245C 251.418,243.67 250.751,242.17 250.5,240.5 Z"/></g>
<g><path style="opacity:1" fill="#3bb2ed" d="M 252.5,247.5 C 256.866,252.606 256.199,253.44 250.5,250C 251.381,249.292 252.047,248.458 252.5,247.5 Z"/></g>
<g><path style="opacity:1" fill="#ecf8fd" d="M 129.5,254.5 C 130.376,254.369 131.043,254.702 131.5,255.5C 129.202,260.251 126.202,264.084 122.5,267C 122.167,266.667 121.833,266.333 121.5,266C 124.3,262.225 126.966,258.392 129.5,254.5 Z"/></g>
<g><path style="opacity:1" fill="#eef8fd" d="M 240.5,250.5 C 244.624,253.534 247.957,257.368 250.5,262C 250.167,262.333 249.833,262.667 249.5,263C 245.5,262 241.5,261 237.5,260C 239.5,262.333 241.5,264.667 243.5,267C 242.975,267.692 242.308,268.192 241.5,268.5C 239,265.5 236.5,262.5 234,259.5C 233.517,258.552 233.351,257.552 233.5,256.5C 237.492,257.671 241.492,258.505 245.5,259C 243.5,256.667 241.5,254.333 239.5,252C 240.056,251.617 240.389,251.117 240.5,250.5 Z"/></g>
<g><path style="opacity:1" fill="#ecf7fd" d="M 133.5,257.5 C 134.5,257.5 135.5,257.5 136.5,257.5C 136.108,260.722 136.608,263.722 138,266.5C 139.084,265.335 139.917,264.002 140.5,262.5C 141.5,261.167 142.5,261.167 143.5,262.5C 141.239,266.697 138.739,270.697 136,274.5C 129.278,272.714 128.111,269.38 132.5,264.5C 133.474,262.257 133.808,259.924 133.5,257.5 Z"/></g>
<g><path style="opacity:1" fill="#ecf8fd" d="M 225.5,260.5 C 230.048,260.199 233.215,262.199 235,266.5C 236.167,273.333 233.333,276.167 226.5,275C 220.622,270.391 220.288,265.558 225.5,260.5 Z"/></g>
<g><path style="opacity:1" fill="#29aaec" d="M 226.5,262.5 C 231.54,264.413 233.207,267.913 231.5,273C 228.196,274.042 226.029,272.875 225,269.5C 224.185,266.802 224.685,264.468 226.5,262.5 Z"/></g>
<g><path style="opacity:1" fill="#eef8fd" d="M 147.5,264.5 C 153.377,264.206 155.877,266.872 155,272.5C 154.265,274.871 153.432,277.205 152.5,279.5C 151.5,280.833 150.5,280.833 149.5,279.5C 150.931,276.374 152.264,273.207 153.5,270C 152.792,267.277 151.125,266.277 148.5,267C 146.278,270.168 144.944,273.668 144.5,277.5C 143.325,277.719 142.325,277.386 141.5,276.5C 142.56,271.961 144.56,267.961 147.5,264.5 Z"/></g>
<g><path style="opacity:1" fill="#40b2ed" d="M 133.5,266.5 C 135.09,266.628 136.423,267.295 137.5,268.5C 136.001,273.448 134.334,273.615 132.5,269C 132.743,268.098 133.077,267.265 133.5,266.5 Z"/></g>
<g><path style="opacity:1" fill="#eaf6fd" d="M 158.5,267.5 C 161.084,268.048 162.084,269.715 161.5,272.5C 163.06,272.519 164.56,272.852 166,273.5C 167.243,271.237 169.076,270.403 171.5,271C 169,274.833 166.5,278.667 164,282.5C 162.989,283.337 161.822,283.67 160.5,283.5C 160.267,278.106 159.601,272.773 158.5,267.5 Z"/></g>
<g><path style="opacity:1" fill="#e7f5fd" d="M 175.5,270.5 C 178.226,270.264 180.559,271.097 182.5,273C 180.978,274.328 179.311,274.162 177.5,272.5C 175.717,273.348 175.217,274.681 176,276.5C 180.001,277.848 181.334,280.515 180,284.5C 177.38,285.923 174.88,285.757 172.5,284C 174.134,283.506 175.801,283.34 177.5,283.5C 177.649,282.448 177.483,281.448 177,280.5C 171.654,277.802 171.154,274.468 175.5,270.5 Z"/></g>
<g><path style="opacity:1" fill="#eef8fd" d="M 183.5,272.5 C 185.41,271.295 186.743,271.962 187.5,274.5C 189.396,275.466 191.396,275.799 193.5,275.5C 193.5,274.167 193.5,272.833 193.5,271.5C 194.675,271.281 195.675,271.614 196.5,272.5C 195.058,277.519 193.058,282.186 190.5,286.5C 188.136,281.773 185.803,277.106 183.5,272.5 Z"/></g>
<g><path style="opacity:1" fill="#eff9fd" d="M 202.5,269.5 C 204.5,269.5 206.5,269.5 208.5,269.5C 209.167,274.16 209.333,278.826 209,283.5C 206.333,284.833 203.667,284.833 201,283.5C 200.257,281.559 200.424,279.726 201.5,278C 199.59,277.592 198.59,276.425 198.5,274.5C 199.127,272.213 200.46,270.546 202.5,269.5 Z"/></g>
<g><path style="opacity:1" fill="#41b2ee" d="M 202.5,271.5 C 203.833,271.5 205.167,271.5 206.5,271.5C 206.5,273.167 206.5,274.833 206.5,276.5C 202.065,277.078 200.732,275.411 202.5,271.5 Z"/></g>
<g><path style="opacity:1" fill="#40b2ed" d="M 162.5,274.5 C 163.675,274.281 164.675,274.614 165.5,275.5C 163.082,282.194 162.082,281.861 162.5,274.5 Z"/></g>
<g><path style="opacity:1" fill="#5abbef" d="M 188.5,276.5 C 189.833,276.5 191.167,276.5 192.5,276.5C 191.216,283.114 189.882,283.114 188.5,276.5 Z"/></g>
<g><path style="opacity:1" fill="#3cb1ed" d="M 203.5,278.5 C 204.833,278.5 206.167,278.5 207.5,278.5C 207.5,279.833 207.5,281.167 207.5,282.5C 203.56,283.234 202.227,281.901 203.5,278.5 Z"/></g>
</svg>
