<?xml version="1.0" encoding="UTF-8"?>
<!DOCTYPE svg PUBLIC "-//W3C//DTD SVG 1.1//EN" "http://www.w3.org/Graphics/SVG/1.1/DTD/svg11.dtd">
<svg xmlns="http://www.w3.org/2000/svg" version="1.1" width="240px" height="249px" style="shape-rendering:geometricPrecision; text-rendering:geometricPrecision; image-rendering:optimizeQuality; fill-rule:evenodd; clip-rule:evenodd" xmlns:xlink="http://www.w3.org/1999/xlink">
<g><path style="opacity:0.991" fill="#1ca4e5" d="M 116.5,-0.5 C 117.833,-0.5 119.167,-0.5 120.5,-0.5C 177.56,3.39142 215.394,32.3914 234,86.5C 235.876,92.7142 237.043,99.0475 237.5,105.5C 237.173,115.681 237.506,125.681 238.5,135.5C 233.387,186.427 207.387,221.927 160.5,242C 150.81,244.676 141.143,246.843 131.5,248.5C 122.5,248.5 113.5,248.5 104.5,248.5C 70.2863,242.974 42.7863,226.307 22,198.5C 18.9617,193.757 16.4617,188.757 14.5,183.5C 21.1677,178.495 28.501,174.495 36.5,171.5C 44.3857,178.212 52.719,184.378 61.5,190C 78.1113,198.935 95.7779,201.935 114.5,199C 150.08,191.62 172.914,170.453 183,135.5C 190.176,99.3572 179.676,69.5239 151.5,46C 125.634,27.4965 97.6339,23.4965 67.5,34C 29.9835,50.896 12.3168,79.7293 14.5,120.5C 9.5137,124.155 4.84704,128.155 0.5,132.5C 0.737305,131.209 0.403972,130.209 -0.5,129.5C -0.5,125.833 -0.5,122.167 -0.5,118.5C 4.42457,59.0692 35.4246,20.5692 92.5,3C 100.587,1.40082 108.587,0.234158 116.5,-0.5 Z"/></g>
<g><path style="opacity:1" fill="#79c9f1" d="M 111.5,14.5 C 110.035,12.4537 110.368,10.6204 112.5,9C 111.552,8.51722 110.552,8.35055 109.5,8.5C 109.183,12.7016 109.517,16.7016 110.5,20.5C 110.44,21.0431 110.107,21.3764 109.5,21.5C 108.749,20.624 108.249,19.624 108,18.5C 107.501,14.5138 107.334,10.5138 107.5,6.5C 111.167,6.5 114.833,6.5 118.5,6.5C 118.5,7.83333 118.5,9.16667 118.5,10.5C 116.167,10.5 113.833,10.5 111.5,10.5C 111.5,11.8333 111.5,13.1667 111.5,14.5 Z"/></g>
<g><path style="opacity:1" fill="#e8f5fc" d="M 111.5,14.5 C 116.833,14.8333 116.833,15.1667 111.5,15.5C 111.634,17.2915 111.301,18.9582 110.5,20.5C 109.517,16.7016 109.183,12.7016 109.5,8.5C 110.552,8.35055 111.552,8.51722 112.5,9C 110.368,10.6204 110.035,12.4537 111.5,14.5 Z"/></g>
<g><path style="opacity:1" fill="#c6e7f9" d="M 120.5,8.5 C 123.32,8.24751 125.986,8.74751 128.5,10C 127.095,11.2692 125.429,11.7692 123.5,11.5C 123.561,14.0495 124.894,15.5495 127.5,16C 125.975,17.0086 124.308,17.5086 122.5,17.5C 122.5,18.8333 122.5,20.1667 122.5,21.5C 124.308,21.4914 125.975,21.9914 127.5,23C 124.854,23.4974 122.187,23.6641 119.5,23.5C 119.751,18.4932 120.084,13.4932 120.5,8.5 Z"/></g>
<g><path style="opacity:1" fill="#dbf0fb" d="M 133.5,11.5 C 143.586,11.4487 146.253,15.9487 141.5,25C 137.808,27.1592 134.308,26.9925 131,24.5C 131.655,20.1996 132.488,15.8662 133.5,11.5 Z"/></g>
<g><path style="opacity:1" fill="#4bb3ed" d="M 135.5,13.5 C 139.49,12.8238 141.157,14.4905 140.5,18.5C 140.827,23.0097 138.827,24.843 134.5,24C 133.941,23.2753 133.608,22.4419 133.5,21.5C 134.378,18.8702 135.045,16.2035 135.5,13.5 Z"/></g>
<g><path style="opacity:1" fill="#def1fb" d="M 149.5,17.5 C 152.516,17.8406 155.182,19.0073 157.5,21C 155.557,20.6948 153.557,20.6948 151.5,21C 150.273,22.5874 150.606,23.9207 152.5,25C 146.323,26.5588 145.99,29.0588 151.5,32.5C 151.167,32.8333 150.833,33.1667 150.5,33.5C 148.05,32.2886 146.05,30.622 144.5,28.5C 146.433,24.9664 148.1,21.2997 149.5,17.5 Z"/></g>
<g><path style="opacity:1" fill="#1d3c72" d="M 14.5,183.5 C 11.5623,180.053 9.56228,176.053 8.5,171.5C 14.4626,167.205 19.796,162.205 24.5,156.5C 35.3345,146.086 48.3345,139.919 63.5,138C 66.9614,136.357 69.9614,134.19 72.5,131.5C 73.2891,131.217 73.9558,130.717 74.5,130C 73.1416,129.066 71.8083,128.232 70.5,127.5C 81.3559,125.762 92.0226,126.595 102.5,130C 107.196,130.914 111.696,130.414 116,128.5C 118.303,124.939 117.803,121.939 114.5,119.5C 115.167,118.5 115.833,117.5 116.5,116.5C 116.5,116.167 116.5,115.833 116.5,115.5C 117.167,116.167 117.833,116.833 118.5,117.5C 120.072,122.342 119.738,127.009 117.5,131.5C 116.662,131.842 116.328,132.508 116.5,133.5C 109.833,133.5 103.167,133.5 96.5,133.5C 95.8333,133.5 95.1667,133.5 94.5,133.5C 93.5416,133.047 92.7083,132.381 92,131.5C 96.4893,143.721 105.323,151.221 118.5,154C 134.763,156.782 148.096,151.949 158.5,139.5C 160.853,137.14 162.853,134.473 164.5,131.5C 167.25,123.748 168.583,115.748 168.5,107.5C 168.204,105.597 167.537,103.93 166.5,102.5C 165.708,95.9174 163.041,90.2507 158.5,85.5C 157.488,84.1283 156.488,82.795 155.5,81.5C 150.284,76.0537 143.951,72.3871 136.5,70.5C 135.833,70.5 135.167,70.5 134.5,70.5C 123.278,68.9124 113.278,71.5791 104.5,78.5C 103.128,79.5116 101.795,80.5116 100.5,81.5C 93.6263,87.5777 89.6263,95.2443 88.5,104.5C 87.9348,106.42 86.9348,108.087 85.5,109.5C 81.1438,108.489 77.1438,106.656 73.5,104C 74.8989,103.405 76.2322,103.572 77.5,104.5C 78.1667,100.833 78.8333,97.1667 79.5,93.5C 83.9066,90.5814 87.0733,86.5814 89,81.5C 94.314,79.0876 98.814,75.5876 102.5,71C 109.008,68.8722 115.675,67.7055 122.5,67.5C 126.634,68.4849 130.968,68.8182 135.5,68.5C 135.737,67.209 135.404,66.209 134.5,65.5C 134.489,63.9826 133.823,62.8159 132.5,62C 121.965,56.6506 110.965,55.3173 99.5,58C 92.5,62.3333 85.5,66.6667 78.5,71C 72.6366,73.3989 66.6366,75.3989 60.5,77C 50.1667,88.6667 39.8333,100.333 29.5,112C 24.1479,114.339 19.1479,117.172 14.5,120.5C 12.3168,79.7293 29.9835,50.896 67.5,34C 97.6339,23.4965 125.634,27.4965 151.5,46C 179.676,69.5239 190.176,99.3572 183,135.5C 172.914,170.453 150.08,191.62 114.5,199C 95.7779,201.935 78.1113,198.935 61.5,190C 52.719,184.378 44.3857,178.212 36.5,171.5C 28.501,174.495 21.1677,178.495 14.5,183.5 Z"/></g>
<g><path style="opacity:1" fill="#d7eefb" d="M 160.5,23.5 C 166.186,23.8555 168.519,26.8555 167.5,32.5C 162.932,32.0826 161.432,34.0826 163,38.5C 163.308,39.3081 163.808,39.9747 164.5,40.5C 167.456,38.904 170.456,37.404 173.5,36C 174.944,35.2195 176.277,35.3861 177.5,36.5C 176.266,41.2068 174.266,45.5402 171.5,49.5C 170.727,47.187 170.06,44.8537 169.5,42.5C 167.925,41.554 166.258,41.554 164.5,42.5C 162.971,42.4712 161.804,41.8045 161,40.5C 160.821,37.4465 160.321,34.4465 159.5,31.5C 158.618,32.7598 157.618,33.9264 156.5,35C 155.668,35.6877 155.002,35.521 154.5,34.5C 156.528,30.8164 158.528,27.1497 160.5,23.5 Z"/></g>
<g><path style="opacity:1" fill="#4ab6ee" d="M 171.5,38.5 C 175.079,38.7657 175.413,40.099 172.5,42.5C 170.358,41.5629 170.024,40.2296 171.5,38.5 Z"/></g>
<g><path style="opacity:1" fill="#48b4ee" d="M 161.5,26.5 C 164.5,26.1667 165.833,27.5 165.5,30.5C 164.167,30.5 162.833,30.5 161.5,30.5C 161.5,29.1667 161.5,27.8333 161.5,26.5 Z"/></g>
<g><path style="opacity:1" fill="#d5eefa" d="M 180.5,44.5 C 185.351,43.8681 187.851,45.8681 188,50.5C 187.521,48.354 186.188,47.354 184,47.5C 177.49,48.4722 175.99,51.6388 179.5,57C 178.216,57.6838 177.049,57.5171 176,56.5C 174.976,51.5482 176.476,47.5482 180.5,44.5 Z"/></g>
<g><path style="opacity:1" fill="#d9effb" d="M 190.5,54.5 C 194.135,54.6556 194.468,55.8223 191.5,58C 188.294,60.034 184.96,61.8674 181.5,63.5C 181.167,63.1667 180.833,62.8333 180.5,62.5C 183.864,59.8249 187.197,57.1582 190.5,54.5 Z"/></g>
<g><path style="opacity:0.997" fill="#f8f9f9" d="M 134.5,65.5 C 130.971,67.4228 126.971,68.0894 122.5,67.5C 115.675,67.7055 109.008,68.8722 102.5,71C 98.814,75.5876 94.314,79.0876 89,81.5C 87.0733,86.5814 83.9066,90.5814 79.5,93.5C 78.8333,97.1667 78.1667,100.833 77.5,104.5C 76.2322,103.572 74.8989,103.405 73.5,104C 77.1438,106.656 81.1438,108.489 85.5,109.5C 94.6809,114.006 104.348,117.339 114.5,119.5C 117.803,121.939 118.303,124.939 116,128.5C 111.696,130.414 107.196,130.914 102.5,130C 92.0226,126.595 81.3559,125.762 70.5,127.5C 68.3453,127.372 66.3453,127.872 64.5,129C 67.166,130.061 69.8327,130.894 72.5,131.5C 69.9614,134.19 66.9614,136.357 63.5,138C 48.3345,139.919 35.3345,146.086 24.5,156.5C 18.5,159.833 12.5,163.167 6.5,166.5C 2.36741,155.58 0.367405,144.247 0.5,132.5C 4.84704,128.155 9.5137,124.155 14.5,120.5C 19.1479,117.172 24.1479,114.339 29.5,112C 39.8333,100.333 50.1667,88.6667 60.5,77C 66.6366,75.3989 72.6366,73.3989 78.5,71C 85.5,66.6667 92.5,62.3333 99.5,58C 110.965,55.3173 121.965,56.6506 132.5,62C 133.823,62.8159 134.489,63.9826 134.5,65.5 Z"/></g>
<g><path style="opacity:0.751" fill="#a4afc5" d="M 134.5,65.5 C 135.404,66.209 135.737,67.209 135.5,68.5C 130.968,68.8182 126.634,68.4849 122.5,67.5C 126.971,68.0894 130.971,67.4228 134.5,65.5 Z"/></g>
<g><path style="opacity:1" fill="#def1fb" d="M 189.5,62.5 C 199.267,62.0726 201.6,65.9059 196.5,74C 188.246,77.0813 184.746,74.2479 186,65.5C 187.518,64.8366 188.685,63.8366 189.5,62.5 Z"/></g>
<g><path style="opacity:1" fill="#3dafec" d="M 190.5,64.5 C 197.632,64.4093 198.965,66.9093 194.5,72C 192.19,72.4966 189.857,72.6633 187.5,72.5C 187.016,69.2118 188.016,66.5452 190.5,64.5 Z"/></g>
<g><path style="opacity:0.998" fill="#f3f4f6" d="M 134.5,70.5 C 135.117,72.2292 136.117,73.7292 137.5,75C 132.923,77.2386 128.589,79.9053 124.5,83C 118.835,83.8009 113.168,84.1342 107.5,84C 105.84,82.5123 104.84,80.679 104.5,78.5C 113.278,71.5791 123.278,68.9124 134.5,70.5 Z"/></g>
<g><path style="opacity:0.996" fill="#dee2e7" d="M 136.5,70.5 C 143.951,72.3871 150.284,76.0537 155.5,81.5C 154.341,83.3769 152.674,83.8769 150.5,83C 144.972,79.6294 140.305,75.4628 136.5,70.5 Z"/></g>
<g><path style="opacity:1" fill="#f3f3f5" d="M 151.5,87.5 C 151.5,90.5 151.5,93.5 151.5,96.5C 146.799,97.3509 142.799,99.5176 139.5,103C 137.098,103.814 134.765,103.647 132.5,102.5C 130.58,96.8267 128.247,91.3267 125.5,86C 128.983,82.4262 132.983,79.5929 137.5,77.5C 141.44,78.8035 145.107,80.6369 148.5,83C 150.439,83.9078 151.439,85.4078 151.5,87.5 Z"/></g>
<g><path style="opacity:1" fill="#eef0f3" d="M 100.5,81.5 C 103.555,82.2465 105.222,84.2465 105.5,87.5C 104.631,90.9408 103.464,94.2741 102,97.5C 97.6667,101.167 93.3333,104.833 89,108.5C 88.51,107.207 88.3433,105.873 88.5,104.5C 89.6263,95.2443 93.6263,87.5777 100.5,81.5 Z"/></g>
<g><path style="opacity:0.753" fill="#7e88a3" d="M 153.5,85.5 C 153.5,87.5 153.5,89.5 153.5,91.5C 152.833,93.1667 152.167,94.8333 151.5,96.5C 151.5,93.5 151.5,90.5 151.5,87.5C 152.167,86.8333 152.833,86.1667 153.5,85.5 Z"/></g>
<g><path style="opacity:1" fill="#eef0f3" d="M 153.5,85.5 C 155.167,85.5 156.833,85.5 158.5,85.5C 163.041,90.2507 165.708,95.9174 166.5,102.5C 166.499,106.252 164.833,107.252 161.5,105.5C 159.565,102.062 157.065,99.062 154,96.5C 153.506,94.8659 153.34,93.1992 153.5,91.5C 153.5,89.5 153.5,87.5 153.5,85.5 Z"/></g>
<g><path style="opacity:1" fill="#e1f2fc" d="M 195.5,77.5 C 197.924,77.1924 200.257,77.5258 202.5,78.5C 201.07,81.4327 199.07,83.9327 196.5,86C 199.507,86.3013 202.507,86.1346 205.5,85.5C 205.5,86.5 205.5,87.5 205.5,88.5C 200.699,88.3498 196.033,89.0165 191.5,90.5C 192.779,86.698 195.112,83.5313 198.5,81C 195.46,80.6799 192.46,80.6799 189.5,81C 191.727,80.059 193.727,78.8923 195.5,77.5 Z"/></g>
<g><path style="opacity:1" fill="#e8f5fc" d="M 209.5,101.5 C 207.735,102.461 205.735,102.795 203.5,102.5C 203.5,104.167 203.5,105.833 203.5,107.5C 205.5,107.5 207.5,107.5 209.5,107.5C 208.848,108.725 207.681,109.392 206,109.5C 197.79,112.789 194.624,110.123 196.5,101.5C 200.833,101.5 205.167,101.5 209.5,101.5 Z"/></g>
<g><path style="opacity:1" fill="#96d3f4" d="M 209.5,101.5 C 210.742,103.389 210.742,105.389 209.5,107.5C 207.5,107.5 205.5,107.5 203.5,107.5C 203.5,105.833 203.5,104.167 203.5,102.5C 205.735,102.795 207.735,102.461 209.5,101.5 Z"/></g>
<g><path style="opacity:1" fill="#7dc8f1" d="M 197.5,103.5 C 199.167,103.5 200.833,103.5 202.5,103.5C 202.5,105.167 202.5,106.833 202.5,108.5C 200.833,108.5 199.167,108.5 197.5,108.5C 197.5,106.833 197.5,105.167 197.5,103.5 Z"/></g>
<g><path style="opacity:1" fill="#f5f6f6" d="M 117.5,131.5 C 119.738,127.009 120.072,122.342 118.5,117.5C 118.5,115.5 118.5,113.5 118.5,111.5C 123.126,111.02 127.126,109.187 130.5,106C 132.81,105.503 135.143,105.337 137.5,105.5C 138.446,111.842 140.113,118.008 142.5,124C 139.912,130.757 135.245,135.257 128.5,137.5C 123.698,137.272 120.032,135.272 117.5,131.5 Z"/></g>
<g><path style="opacity:0.998" fill="#46557c" d="M 134.5,70.5 C 135.167,70.5 135.833,70.5 136.5,70.5C 140.305,75.4628 144.972,79.6294 150.5,83C 152.674,83.8769 154.341,83.3769 155.5,81.5C 156.488,82.795 157.488,84.1283 158.5,85.5C 156.833,85.5 155.167,85.5 153.5,85.5C 152.833,86.1667 152.167,86.8333 151.5,87.5C 151.439,85.4078 150.439,83.9078 148.5,83C 145.107,80.6369 141.44,78.8035 137.5,77.5C 132.983,79.5929 128.983,82.4262 125.5,86C 128.247,91.3267 130.58,96.8267 132.5,102.5C 134.765,103.647 137.098,103.814 139.5,103C 142.799,99.5176 146.799,97.3509 151.5,96.5C 152.167,94.8333 152.833,93.1667 153.5,91.5C 153.34,93.1992 153.506,94.8659 154,96.5C 157.065,99.062 159.565,102.062 161.5,105.5C 164.833,107.252 166.499,106.252 166.5,102.5C 167.537,103.93 168.204,105.597 168.5,107.5C 165.358,107.799 163.191,109.466 162,112.5C 161.062,115.812 160.229,119.145 159.5,122.5C 160.162,125.468 160.495,128.468 160.5,131.5C 161.833,131.5 163.167,131.5 164.5,131.5C 162.853,134.473 160.853,137.14 158.5,139.5C 158.158,138.662 157.492,138.328 156.5,138.5C 160.153,134.22 160.486,129.553 157.5,124.5C 154.503,123.524 151.503,123.69 148.5,125C 142.965,130.364 136.965,135.198 130.5,139.5C 128.946,141.933 128.28,144.6 128.5,147.5C 134.262,147.564 139.929,146.897 145.5,145.5C 143.266,147.446 140.599,148.613 137.5,149C 133.514,149.499 129.514,149.666 125.5,149.5C 124.391,148.71 123.058,148.21 121.5,148C 123.058,147.79 124.391,147.29 125.5,146.5C 127.051,144.087 127.717,141.421 127.5,138.5C 123.164,138.163 119.497,136.496 116.5,133.5C 116.328,132.508 116.662,131.842 117.5,131.5C 120.032,135.272 123.698,137.272 128.5,137.5C 135.245,135.257 139.912,130.757 142.5,124C 140.113,118.008 138.446,111.842 137.5,105.5C 135.143,105.337 132.81,105.503 130.5,106C 127.126,109.187 123.126,111.02 118.5,111.5C 118.5,113.5 118.5,115.5 118.5,117.5C 117.833,116.833 117.167,116.167 116.5,115.5C 112.776,109.442 107.776,104.775 101.5,101.5C 97.3031,103.024 93.9698,105.691 91.5,109.5C 91.7093,110.086 92.0426,110.586 92.5,111C 100.52,112.839 108.52,114.672 116.5,116.5C 115.833,117.5 115.167,118.5 114.5,119.5C 104.348,117.339 94.6809,114.006 85.5,109.5C 86.9348,108.087 87.9348,106.42 88.5,104.5C 88.3433,105.873 88.51,107.207 89,108.5C 93.3333,104.833 97.6667,101.167 102,97.5C 103.464,94.2741 104.631,90.9408 105.5,87.5C 105.222,84.2465 103.555,82.2465 100.5,81.5C 101.795,80.5116 103.128,79.5116 104.5,78.5C 104.84,80.679 105.84,82.5123 107.5,84C 113.168,84.1342 118.835,83.8009 124.5,83C 128.589,79.9053 132.923,77.2386 137.5,75C 136.117,73.7292 135.117,72.2292 134.5,70.5 Z"/></g>
<g><path style="opacity:0.997" fill="#ebedf1" d="M 116.5,115.5 C 116.5,115.833 116.5,116.167 116.5,116.5C 108.52,114.672 100.52,112.839 92.5,111C 92.0426,110.586 91.7093,110.086 91.5,109.5C 93.9698,105.691 97.3031,103.024 101.5,101.5C 107.776,104.775 112.776,109.442 116.5,115.5 Z"/></g>
<g><path style="opacity:1" fill="#f6f7f8" d="M 147.5,98.5 C 149.527,98.3379 151.527,98.5045 153.5,99C 160.585,104.652 162.085,111.486 158,119.5C 153.905,122.326 149.405,122.993 144.5,121.5C 142.735,116.704 141.068,111.871 139.5,107C 141.941,103.948 144.607,101.115 147.5,98.5 Z"/></g>
<g><path style="opacity:1" fill="#f3f4f5" d="M 109.5,85.5 C 114.248,85.2748 118.915,85.7748 123.5,87C 126.418,92.3157 128.585,97.8157 130,103.5C 126.559,105.276 123.392,107.443 120.5,110C 118.833,110.667 117.167,110.667 115.5,110C 112,106.5 108.5,103 105,99.5C 104.333,97.8333 104.333,96.1667 105,94.5C 106.527,91.4469 108.027,88.4469 109.5,85.5 Z"/></g>
<g><path style="opacity:0.999" fill="#eeeff2" d="M 168.5,107.5 C 168.583,115.748 167.25,123.748 164.5,131.5C 163.167,131.5 161.833,131.5 160.5,131.5C 160.495,128.468 160.162,125.468 159.5,122.5C 160.229,119.145 161.062,115.812 162,112.5C 163.191,109.466 165.358,107.799 168.5,107.5 Z"/></g>
<g><path style="opacity:1" fill="#d9f0fa" d="M 196.5,114.5 C 201.009,115.063 205.342,116.897 209.5,120C 205.08,122.763 200.413,123.93 195.5,123.5C 197.234,122.326 198.234,120.66 198.5,118.5C 198.66,116.645 197.993,115.312 196.5,114.5 Z"/></g>
<g><path style="opacity:1" fill="#49b7ee" d="M 201.5,118.5 C 202.978,118.238 204.311,118.571 205.5,119.5C 204.833,119.833 204.167,120.167 203.5,120.5C 202.287,120.253 201.62,119.586 201.5,118.5 Z"/></g>
<g><path style="opacity:0.316" fill="#106088" d="M 237.5,105.5 C 238.167,107.833 238.833,110.167 239.5,112.5C 239.5,119.833 239.5,127.167 239.5,134.5C 238.833,134.5 238.5,134.833 238.5,135.5C 237.506,125.681 237.173,115.681 237.5,105.5 Z"/></g>
<g><path style="opacity:0.999" fill="#f6f7f8" d="M 156.5,138.5 C 155.508,138.328 154.842,138.662 154.5,139.5C 153.5,139.833 152.833,140.5 152.5,141.5C 149.968,142.596 147.635,143.929 145.5,145.5C 139.929,146.897 134.262,147.564 128.5,147.5C 128.28,144.6 128.946,141.933 130.5,139.5C 136.965,135.198 142.965,130.364 148.5,125C 151.503,123.69 154.503,123.524 157.5,124.5C 160.486,129.553 160.153,134.22 156.5,138.5 Z"/></g>
<g><path style="opacity:1" fill="#a7afc2" d="M 70.5,127.5 C 71.8083,128.232 73.1416,129.066 74.5,130C 73.9558,130.717 73.2891,131.217 72.5,131.5C 69.8327,130.894 67.166,130.061 64.5,129C 66.3453,127.872 68.3453,127.372 70.5,127.5 Z"/></g>
<g><path style="opacity:1" fill="#d1ecf9" d="M 193.5,128.5 C 198.463,129.254 203.463,129.587 208.5,129.5C 208.5,130.5 208.5,131.5 208.5,132.5C 204.176,132.073 199.842,131.739 195.5,131.5C 195.688,133.103 195.188,134.437 194,135.5C 193.503,133.19 193.337,130.857 193.5,128.5 Z"/></g>
<g><path style="opacity:0.998" fill="#e8eaed" d="M 94.5,133.5 C 96.1108,137.051 98.4442,140.051 101.5,142.5C 101.833,142.333 102.167,142.167 102.5,142C 100.112,139.371 98.1118,136.538 96.5,133.5C 103.167,133.5 109.833,133.5 116.5,133.5C 119.497,136.496 123.164,138.163 127.5,138.5C 127.717,141.421 127.051,144.087 125.5,146.5C 109.542,147.479 109.542,148.479 125.5,149.5C 129.514,149.666 133.514,149.499 137.5,149C 140.599,148.613 143.266,147.446 145.5,145.5C 147.635,143.929 149.968,142.596 152.5,141.5C 153.239,141.631 153.906,141.464 154.5,141C 155.738,140.31 155.738,139.81 154.5,139.5C 154.842,138.662 155.508,138.328 156.5,138.5C 157.492,138.328 158.158,138.662 158.5,139.5C 148.096,151.949 134.763,156.782 118.5,154C 105.323,151.221 96.4893,143.721 92,131.5C 92.7083,132.381 93.5416,133.047 94.5,133.5 Z"/></g>
<g><path style="opacity:0.922" fill="#858a9f" d="M 94.5,133.5 C 95.1667,133.5 95.8333,133.5 96.5,133.5C 98.1118,136.538 100.112,139.371 102.5,142C 102.167,142.167 101.833,142.333 101.5,142.5C 98.4442,140.051 96.1108,137.051 94.5,133.5 Z"/></g>
<g><path style="opacity:0.841" fill="#69728e" d="M 154.5,139.5 C 155.738,139.81 155.738,140.31 154.5,141C 153.906,141.464 153.239,141.631 152.5,141.5C 152.833,140.5 153.5,139.833 154.5,139.5 Z"/></g>
<g><path style="opacity:1" fill="#e1f2fb" d="M 192.5,139.5 C 196.753,138.986 200.587,139.986 204,142.5C 205.601,150.564 202.434,153.397 194.5,151C 190.111,147.835 189.445,144.002 192.5,139.5 Z"/></g>
<g><path style="opacity:1" fill="#3dafeb" d="M 193.5,141.5 C 199.144,140.481 202.144,142.814 202.5,148.5C 199.482,148.665 196.482,148.498 193.5,148C 192.232,145.837 192.232,143.67 193.5,141.5 Z"/></g>
<g><path style="opacity:1" fill="#96a0b5" d="M 125.5,146.5 C 124.391,147.29 123.058,147.79 121.5,148C 123.058,148.21 124.391,148.71 125.5,149.5C 109.542,148.479 109.542,147.479 125.5,146.5 Z"/></g>
<g><path style="opacity:0.985" fill="#3296ce" d="M 24.5,156.5 C 19.796,162.205 14.4626,167.205 8.5,171.5C 7.5592,169.95 6.89254,168.284 6.5,166.5C 12.5,163.167 18.5,159.833 24.5,156.5 Z"/></g>
<g><path style="opacity:1" fill="#e2f3fb" d="M 186.5,153.5 C 191.265,153.527 195.599,155.361 199.5,159C 195.821,159.787 192.154,160.621 188.5,161.5C 190.228,163.226 192.228,164.559 194.5,165.5C 195.833,166.167 195.833,166.833 194.5,167.5C 190.136,165.656 186.136,163.323 182.5,160.5C 183.376,159.749 184.376,159.249 185.5,159C 188.5,158.667 191.5,158.333 194.5,158C 191.688,156.672 189.022,155.172 186.5,153.5 Z"/></g>
<g><path style="opacity:1" fill="#e1f2fb" d="M 180.5,165.5 C 184.828,167.347 188.495,170.181 191.5,174C 187.703,174.59 184.036,174.09 180.5,172.5C 180.167,172.833 179.833,173.167 179.5,173.5C 181,175.833 182.5,178.167 184,180.5C 184.749,181.635 184.583,182.635 183.5,183.5C 179.762,181.924 176.429,179.757 173.5,177C 175.567,176.464 177.401,176.964 179,178.5C 178.797,176.063 177.963,173.729 176.5,171.5C 179.107,170.682 181.774,170.182 184.5,170C 182.249,169.252 180.916,167.752 180.5,165.5 Z"/></g>
<g><path style="opacity:1" fill="#d8effb" d="M 169.5,178.5 C 170.496,178.414 171.329,178.748 172,179.5C 174.602,183.474 176.102,187.807 176.5,192.5C 171.249,191.583 166.582,189.417 162.5,186C 168.927,186.85 171.26,184.35 169.5,178.5 Z"/></g>
<g><path style="opacity:1" fill="#52b9ee" d="M 170.5,185.5 C 172.728,186.322 173.395,187.655 172.5,189.5C 169.841,188.898 169.174,187.565 170.5,185.5 Z"/></g>
<g><path style="opacity:1" fill="#dff2fb" d="M 158.5,188.5 C 163.665,190.996 166.998,194.996 168.5,200.5C 164.418,199.643 160.418,198.809 156.5,198C 157.88,199.925 159.38,201.759 161,203.5C 161.688,204.332 161.521,204.998 160.5,205.5C 156.587,202.65 153.921,198.983 152.5,194.5C 156.137,195.497 159.804,195.997 163.5,196C 161.585,193.6 159.919,191.1 158.5,188.5 Z"/></g>
<g><path style="opacity:1" fill="#def2fb" d="M 47.5,192.5 C 48.3764,192.369 49.0431,192.702 49.5,193.5C 47.6233,197.88 44.7899,201.547 41,204.5C 40.6848,203.092 41.0181,201.759 42,200.5C 44.054,197.953 45.8874,195.286 47.5,192.5 Z"/></g>
<g><path style="opacity:1" fill="#dff2fb" d="M 143.5,198.5 C 152.689,199.039 155.356,203.539 151.5,212C 145.005,213.674 141.338,211.174 140.5,204.5C 140.628,202.045 141.628,200.045 143.5,198.5 Z"/></g>
<g><path style="opacity:1" fill="#def1fb" d="M 52.5,195.5 C 54.2039,197.786 55.5372,200.452 56.5,203.5C 57.8448,202.653 58.8448,201.487 59.5,200C 60.3317,199.312 60.9984,199.479 61.5,200.5C 59.5428,204.775 56.8762,208.441 53.5,211.5C 50.8333,210.833 49.1667,209.167 48.5,206.5C 50.6765,203.146 52.0098,199.479 52.5,195.5 Z"/></g>
<g><path style="opacity:1" fill="#35adec" d="M 144.5,200.5 C 149.937,201.548 151.937,204.881 150.5,210.5C 143.67,210.34 141.67,207.007 144.5,200.5 Z"/></g>
<g><path style="opacity:1" fill="#47b4ed" d="M 51.5,204.5 C 55.1612,204.35 56.1612,205.85 54.5,209C 53.5509,209.617 52.7175,209.451 52,208.5C 51.51,207.207 51.3433,205.873 51.5,204.5 Z"/></g>
<g><path style="opacity:1" fill="#e0f2fb" d="M 65.5,202.5 C 70.1562,201.34 72.8228,203.007 73.5,207.5C 72.9971,210.841 71.9971,214.008 70.5,217C 69.5165,217.591 68.8499,217.257 68.5,216C 70.6924,212.478 71.3591,208.811 70.5,205C 68.8876,204.28 67.3876,204.446 66,205.5C 64.0924,208.206 63.259,211.206 63.5,214.5C 62.5,214.5 61.5,214.5 60.5,214.5C 61.0675,210.033 62.7342,206.033 65.5,202.5 Z"/></g>
<g><path style="opacity:1" fill="#dbeffb" d="M 77.5,205.5 C 79.256,206.552 79.9227,208.219 79.5,210.5C 83.0596,210.516 86.393,210.016 89.5,209C 87.208,212.416 85.0414,215.916 83,219.5C 81.8904,221.037 80.3904,221.703 78.5,221.5C 78.6757,216.12 78.3424,210.787 77.5,205.5 Z"/></g>
<g><path style="opacity:1" fill="#d9effb" d="M 93.5,208.5 C 96.1569,208.162 98.4902,208.829 100.5,210.5C 98.5988,211.231 96.5988,211.231 94.5,210.5C 94.373,213.245 95.5397,215.245 98,216.5C 98.4955,218.473 98.6621,220.473 98.5,222.5C 96.1432,222.663 93.8098,222.497 91.5,222C 93.1341,221.506 94.8008,221.34 96.5,221.5C 96.6495,220.448 96.4828,219.448 96,218.5C 91.159,216.122 90.3257,212.789 93.5,208.5 Z"/></g>
<g><path style="opacity:1" fill="#d8effa" d="M 119.5,207.5 C 122.167,207.5 124.833,207.5 127.5,207.5C 127.5,212.167 127.5,216.833 127.5,221.5C 124.833,221.5 122.167,221.5 119.5,221.5C 119.739,218.085 119.072,214.919 117.5,212C 117.519,210.167 118.185,208.667 119.5,207.5 Z"/></g>
<g><path style="opacity:1" fill="#44b3ee" d="M 120.5,209.5 C 121.833,209.5 123.167,209.5 124.5,209.5C 124.5,210.833 124.5,212.167 124.5,213.5C 123.167,213.5 121.833,213.5 120.5,213.5C 120.5,212.167 120.5,210.833 120.5,209.5 Z"/></g>
<g><path style="opacity:1" fill="#6bc0f0" d="M 80.5,211.5 C 81.5,211.5 82.5,211.5 83.5,211.5C 82.051,219.297 81.051,219.297 80.5,211.5 Z"/></g>
<g><path style="opacity:1" fill="#96d2f4" d="M 113.5,209.5 C 112.579,212.676 111.079,215.676 109,218.5C 106.922,216.738 106.422,214.738 107.5,212.5C 108.833,212.5 110.167,212.5 111.5,212.5C 111.238,211.022 111.571,209.689 112.5,208.5C 113.107,208.624 113.44,208.957 113.5,209.5 Z"/></g>
<g><path style="opacity:1" fill="#82caf2" d="M 121.5,215.5 C 123.167,215.5 124.833,215.5 126.5,215.5C 126.5,217.167 126.5,218.833 126.5,220.5C 122.5,221.167 120.833,219.5 121.5,215.5 Z"/></g>
<g><path style="opacity:1" fill="#e2f3fb" d="M 107.5,212.5 C 106.422,214.738 106.922,216.738 109,218.5C 111.079,215.676 112.579,212.676 113.5,209.5C 114.097,209.735 114.43,210.235 114.5,211C 113.062,215.373 111.228,219.54 109,223.5C 106.833,219.167 104.667,214.833 102.5,210.5C 102.833,210.167 103.167,209.833 103.5,209.5C 104.852,210.524 106.185,211.524 107.5,212.5 Z"/></g>
</svg>
