<svg width="682" height="35" viewBox="0 0 682 35" fill="none" xmlns="http://www.w3.org/2000/svg">
<path d="M30.8653 0H0V29H30.8653V0Z" fill="#00B67A"/>
<path d="M64.3028 0H33.4375V29H64.3028V0Z" fill="#00B67A"/>
<path d="M97.7402 0H66.8749V29H97.7402V0Z" fill="#00B67A"/>
<path d="M131.178 0H100.312V29H131.178V0Z" fill="#00B67A"/>
<path d="M164.615 0H149.182V29H164.615V0Z" fill="#DCDCE6"/>
<path d="M149.182 0H133.75V29H149.182V0Z" fill="#00B67A"/>
<path d="M15.4327 19.5448L20.1268 18.4271L22.088 24.1063L15.4327 19.5448ZM26.2355 12.2042H17.9726L15.4327 4.89375L12.8927 12.2042H4.62981L11.3173 16.7354L8.77734 24.0458L15.4648 19.5146L19.5802 16.7354L26.2355 12.2042Z" fill="white"/>
<path d="M48.8701 19.5448L53.5642 18.4271L55.5254 24.1063L48.8701 19.5448ZM59.673 12.2042H51.4101L48.8701 4.89375L46.3301 12.2042H38.0672L44.7547 16.7354L42.2148 24.0458L48.9023 19.5146L53.0176 16.7354L59.673 12.2042Z" fill="white"/>
<path d="M82.3076 19.5448L87.0017 18.4271L88.9629 24.1063L82.3076 19.5448ZM93.1104 12.2042H84.8475L82.3076 4.89375L79.7676 12.2042H71.5047L78.1922 16.7354L75.6522 24.0458L82.3397 19.5146L86.4551 16.7354L93.1104 12.2042Z" fill="white"/>
<path d="M115.745 19.5448L120.439 18.4271L122.4 24.1063L115.745 19.5448ZM126.548 12.2042H118.285L115.745 4.89375L113.205 12.2042H104.942L111.63 16.7354L109.09 24.0458L115.777 19.5146L119.893 16.7354L126.548 12.2042Z" fill="white"/>
<path d="M149.182 19.5448L153.877 18.4271L155.838 24.1063L149.182 19.5448ZM159.985 12.2042H151.722L149.182 4.89375L146.643 12.2042H138.38L145.067 16.7354L142.527 24.0458L149.215 19.5146L153.33 16.7354L159.985 12.2042Z" fill="white"/>
<path d="M175.996 20.9318V18.0256L183.283 6.54545H185.789V10.5682H184.306L179.712 17.8381V17.9744H190.067V20.9318H175.996ZM184.374 24V20.0455L184.442 18.7585V6.54545H187.902V24H184.374ZM194.354 24.2216C193.792 24.2216 193.309 24.0227 192.905 23.625C192.508 23.2216 192.309 22.7386 192.309 22.1761C192.309 21.6193 192.508 21.142 192.905 20.7443C193.309 20.3466 193.792 20.1477 194.354 20.1477C194.9 20.1477 195.377 20.3466 195.786 20.7443C196.195 21.142 196.4 21.6193 196.4 22.1761C196.4 22.5511 196.303 22.8949 196.11 23.2074C195.922 23.5142 195.675 23.7614 195.368 23.9489C195.061 24.1307 194.723 24.2216 194.354 24.2216ZM205.155 24.2386C203.842 24.2386 202.674 24.0256 201.652 23.5994C200.635 23.1676 199.836 22.5795 199.257 21.8352C198.677 21.0909 198.387 20.2472 198.387 19.304C198.387 18.5767 198.552 17.9091 198.882 17.3011C199.217 16.6875 199.672 16.179 200.245 15.7756C200.819 15.3665 201.461 15.1051 202.172 14.9915V14.8722C201.24 14.6847 200.484 14.233 199.905 13.517C199.325 12.7955 199.035 11.9574 199.035 11.0028C199.035 10.0994 199.299 9.29545 199.828 8.59091C200.356 7.88068 201.081 7.32386 202.001 6.92045C202.927 6.51136 203.978 6.30682 205.155 6.30682C206.331 6.30682 207.379 6.51136 208.299 6.92045C209.226 7.32955 209.953 7.8892 210.481 8.59943C211.01 9.30398 211.277 10.1051 211.282 11.0028C211.277 11.9631 210.981 12.8011 210.396 13.517C209.811 14.233 209.061 14.6847 208.146 14.8722V14.9915C208.845 15.1051 209.478 15.3665 210.047 15.7756C210.62 16.179 211.075 16.6875 211.41 17.3011C211.751 17.9091 211.924 18.5767 211.93 19.304C211.924 20.2472 211.632 21.0909 211.052 21.8352C210.473 22.5795 209.672 23.1676 208.649 23.5994C207.632 24.0256 206.467 24.2386 205.155 24.2386ZM205.155 21.5284C205.74 21.5284 206.251 21.4233 206.689 21.2131C207.126 20.9972 207.467 20.7017 207.711 20.3267C207.961 19.946 208.086 19.5085 208.086 19.0142C208.086 18.5085 207.959 18.0625 207.703 17.6761C207.447 17.2841 207.101 16.9773 206.663 16.7557C206.226 16.5284 205.723 16.4148 205.155 16.4148C204.592 16.4148 204.089 16.5284 203.646 16.7557C203.203 16.9773 202.853 17.2841 202.598 17.6761C202.348 18.0625 202.223 18.5085 202.223 19.0142C202.223 19.5085 202.345 19.946 202.589 20.3267C202.834 20.7017 203.177 20.9972 203.62 21.2131C204.064 21.4233 204.575 21.5284 205.155 21.5284ZM205.155 13.7301C205.643 13.7301 206.078 13.6307 206.459 13.4318C206.839 13.233 207.137 12.9574 207.353 12.6051C207.569 12.2528 207.677 11.8466 207.677 11.3864C207.677 10.9318 207.569 10.5341 207.353 10.1932C207.137 9.84659 206.842 9.5767 206.467 9.38352C206.092 9.18466 205.655 9.08523 205.155 9.08523C204.66 9.08523 204.223 9.18466 203.842 9.38352C203.461 9.5767 203.163 9.84659 202.947 10.1932C202.737 10.5341 202.632 10.9318 202.632 11.3864C202.632 11.8466 202.74 12.2528 202.956 12.6051C203.172 12.9574 203.47 13.233 203.851 13.4318C204.231 13.6307 204.666 13.7301 205.155 13.7301ZM222.147 5.72727L216.522 26.625H213.394L219.019 5.72727H222.147ZM230.237 24.2386C229.032 24.2386 227.959 24.017 227.015 23.5739C226.078 23.1307 225.334 22.5199 224.782 21.7415C224.231 20.9631 223.944 20.071 223.922 19.0653H227.501C227.541 19.7415 227.825 20.2898 228.353 20.7102C228.882 21.1307 229.51 21.3409 230.237 21.3409C230.816 21.3409 231.328 21.2131 231.771 20.9574C232.22 20.696 232.569 20.3352 232.819 19.875C233.075 19.4091 233.203 18.875 233.203 18.2727C233.203 17.6591 233.072 17.1193 232.811 16.6534C232.555 16.1875 232.2 15.8239 231.745 15.5625C231.291 15.3011 230.771 15.1676 230.186 15.1619C229.674 15.1619 229.177 15.267 228.694 15.4773C228.217 15.6875 227.845 15.9744 227.578 16.3381L224.297 15.75L225.123 6.54545H235.794V9.5625H228.166L227.714 13.9347H227.816C228.123 13.5028 228.586 13.1449 229.206 12.8608C229.825 12.5767 230.518 12.4347 231.285 12.4347C232.336 12.4347 233.274 12.6818 234.098 13.1761C234.922 13.6705 235.572 14.3494 236.049 15.2131C236.527 16.071 236.762 17.0597 236.757 18.179C236.762 19.3551 236.49 20.4006 235.939 21.3153C235.393 22.2244 234.629 22.9403 233.646 23.4631C232.669 23.9801 231.532 24.2386 230.237 24.2386ZM378.422 21.3409V9.27273H381.473V21.3409H378.422ZM373.913 16.8324V13.7812H385.981V16.8324H373.913ZM395.853 24.2386C394.58 24.2386 393.446 24.0199 392.452 23.5824C391.463 23.1392 390.682 22.5312 390.108 21.7585C389.54 20.9801 389.248 20.0824 389.231 19.0653H392.946C392.969 19.4915 393.108 19.8665 393.364 20.1903C393.625 20.5085 393.972 20.7557 394.404 20.9318C394.836 21.108 395.321 21.196 395.861 21.196C396.424 21.196 396.921 21.0966 397.353 20.8977C397.785 20.6989 398.123 20.4233 398.367 20.071C398.611 19.7187 398.733 19.3125 398.733 18.8523C398.733 18.3864 398.603 17.9744 398.341 17.6165C398.086 17.2528 397.716 16.9687 397.233 16.7642C396.756 16.5597 396.188 16.4574 395.529 16.4574H393.901V13.7472H395.529C396.086 13.7472 396.577 13.6506 397.003 13.4574C397.435 13.2642 397.77 12.9972 398.009 12.6562C398.248 12.3097 398.367 11.9062 398.367 11.446C398.367 11.0085 398.262 10.625 398.052 10.2955C397.847 9.96023 397.557 9.69886 397.182 9.51136C396.813 9.32386 396.381 9.23011 395.887 9.23011C395.387 9.23011 394.929 9.32102 394.515 9.50284C394.1 9.67898 393.767 9.93182 393.517 10.2614C393.267 10.5909 393.134 10.9773 393.117 11.4205H389.58C389.597 10.4148 389.884 9.52841 390.441 8.76136C390.998 7.99432 391.748 7.39489 392.691 6.96307C393.64 6.52557 394.711 6.30682 395.904 6.30682C397.108 6.30682 398.162 6.52557 399.066 6.96307C399.969 7.40057 400.671 7.99148 401.171 8.73579C401.677 9.47443 401.927 10.304 401.921 11.2244C401.927 12.2017 401.623 13.017 401.009 13.6705C400.401 14.3239 399.608 14.7386 398.631 14.9148V15.0511C399.915 15.2159 400.892 15.6619 401.563 16.3892C402.239 17.1108 402.574 18.0142 402.569 19.0994C402.574 20.0938 402.287 20.9773 401.708 21.75C401.134 22.5227 400.341 23.1307 399.33 23.5739C398.319 24.017 397.16 24.2386 395.853 24.2386ZM411.92 24.2386C411.022 24.233 410.156 24.0824 409.321 23.7869C408.491 23.4915 407.747 23.0114 407.088 22.3466C406.429 21.6818 405.906 20.8011 405.52 19.7045C405.139 18.608 404.949 17.2614 404.949 15.6648C404.954 14.1989 405.122 12.8892 405.451 11.7358C405.787 10.5767 406.264 9.59375 406.883 8.78693C407.508 7.98011 408.255 7.36648 409.125 6.94602C409.994 6.51989 410.968 6.30682 412.048 6.30682C413.213 6.30682 414.241 6.53409 415.133 6.98864C416.025 7.4375 416.741 8.0483 417.281 8.82102C417.826 9.59375 418.156 10.4602 418.27 11.4205H414.63C414.488 10.8125 414.19 10.3352 413.735 9.98864C413.281 9.64205 412.718 9.46875 412.048 9.46875C410.912 9.46875 410.048 9.96307 409.457 10.9517C408.872 11.9403 408.574 13.2841 408.562 14.983H408.682C408.943 14.4659 409.295 14.0256 409.738 13.6619C410.187 13.2926 410.696 13.0114 411.264 12.8182C411.838 12.6193 412.443 12.5199 413.079 12.5199C414.113 12.5199 415.034 12.7642 415.841 13.2528C416.647 13.7358 417.284 14.4006 417.75 15.2472C418.216 16.0937 418.449 17.0625 418.449 18.1534C418.449 19.3352 418.173 20.3864 417.622 21.3068C417.076 22.2273 416.312 22.9489 415.329 23.4716C414.352 23.9886 413.216 24.2443 411.92 24.2386ZM411.903 21.3409C412.471 21.3409 412.98 21.2045 413.429 20.9318C413.878 20.6591 414.23 20.2898 414.485 19.8239C414.741 19.358 414.869 18.8352 414.869 18.2557C414.869 17.6761 414.741 17.1562 414.485 16.696C414.235 16.2358 413.889 15.8693 413.446 15.5966C413.003 15.3239 412.497 15.1875 411.929 15.1875C411.503 15.1875 411.108 15.267 410.744 15.4261C410.386 15.5852 410.071 15.8068 409.798 16.0909C409.531 16.375 409.321 16.7045 409.167 17.0795C409.014 17.4489 408.937 17.8437 408.937 18.2642C408.937 18.8267 409.065 19.3409 409.321 19.8068C409.582 20.2727 409.934 20.6449 410.378 20.9233C410.826 21.2017 411.335 21.3409 411.903 21.3409ZM427.38 6.30682C428.278 6.30682 429.142 6.45739 429.971 6.75852C430.807 7.05966 431.551 7.53977 432.204 8.19886C432.863 8.85795 433.383 9.73295 433.764 10.8239C434.15 11.9091 434.346 13.2415 434.352 14.821C434.352 16.304 434.184 17.6278 433.849 18.7926C433.52 19.9517 433.045 20.9375 432.426 21.75C431.807 22.5625 431.059 23.1818 430.184 23.608C429.309 24.0284 428.332 24.2386 427.253 24.2386C426.088 24.2386 425.059 24.0142 424.167 23.5653C423.275 23.1108 422.557 22.4943 422.011 21.7159C421.471 20.9318 421.145 20.0511 421.031 19.0739H424.67C424.812 19.7102 425.11 20.2045 425.565 20.5568C426.02 20.9034 426.582 21.0767 427.253 21.0767C428.389 21.0767 429.253 20.5824 429.843 19.5938C430.434 18.5994 430.733 17.2386 430.738 15.5114H430.619C430.358 16.0227 430.005 16.4631 429.562 16.8324C429.119 17.196 428.61 17.4773 428.037 17.6761C427.468 17.875 426.863 17.9744 426.221 17.9744C425.193 17.9744 424.275 17.733 423.468 17.25C422.662 16.767 422.025 16.1023 421.559 15.2557C421.093 14.4091 420.86 13.4432 420.86 12.358C420.855 11.1875 421.125 10.1449 421.67 9.23011C422.216 8.31534 422.977 7.59943 423.954 7.08239C424.937 6.55966 426.079 6.30114 427.38 6.30682ZM427.406 9.20454C426.832 9.20454 426.321 9.34091 425.872 9.61364C425.429 9.88636 425.076 10.2528 424.815 10.7131C424.559 11.1733 424.434 11.6875 424.44 12.2557C424.44 12.8295 424.565 13.3466 424.815 13.8068C425.071 14.2614 425.417 14.625 425.855 14.8977C426.298 15.1648 426.804 15.2983 427.372 15.2983C427.798 15.2983 428.193 15.2187 428.557 15.0597C428.92 14.9006 429.235 14.6818 429.503 14.4034C429.775 14.1193 429.988 13.7926 430.142 13.4233C430.295 13.054 430.372 12.6619 430.372 12.2472C430.366 11.696 430.235 11.1903 429.98 10.7301C429.724 10.2699 429.372 9.90057 428.923 9.62216C428.474 9.34375 427.968 9.20454 427.406 9.20454Z" fill="#006B9B"/>
<path d="M246.387 24V6.54545H249.473V13.0739H249.601C249.76 12.7557 249.984 12.4176 250.274 12.0597C250.564 11.696 250.956 11.3864 251.45 11.1307C251.944 10.8693 252.575 10.7386 253.342 10.7386C254.353 10.7386 255.265 10.9972 256.078 11.5142C256.896 12.0256 257.544 12.7841 258.021 13.7898C258.504 14.7898 258.745 16.017 258.745 17.4716C258.745 18.9091 258.51 20.1307 258.038 21.1364C257.566 22.142 256.924 22.9091 256.112 23.4375C255.299 23.9659 254.379 24.2301 253.351 24.2301C252.601 24.2301 251.978 24.1051 251.484 23.8551C250.99 23.6051 250.592 23.304 250.291 22.9517C249.995 22.5937 249.765 22.2557 249.601 21.9375H249.422V24H246.387ZM249.413 17.4545C249.413 18.3011 249.532 19.0426 249.771 19.679C250.015 20.3153 250.365 20.8125 250.819 21.1705C251.28 21.5227 251.836 21.6989 252.49 21.6989C253.172 21.6989 253.743 21.517 254.203 21.1534C254.663 20.7841 255.01 20.2812 255.243 19.6449C255.481 19.0028 255.601 18.2727 255.601 17.4545C255.601 16.642 255.484 15.9205 255.251 15.2898C255.018 14.6591 254.672 14.1648 254.211 13.8068C253.751 13.4489 253.177 13.2699 252.49 13.2699C251.831 13.2699 251.271 13.4432 250.811 13.7898C250.351 14.1364 250.001 14.6222 249.762 15.2472C249.53 15.8722 249.413 16.608 249.413 17.4545ZM265.135 24.2642C264.306 24.2642 263.559 24.1165 262.894 23.821C262.235 23.5199 261.712 23.0767 261.326 22.4915C260.945 21.9062 260.755 21.1847 260.755 20.3267C260.755 19.5881 260.891 18.9773 261.164 18.4943C261.436 18.0114 261.809 17.625 262.28 17.3352C262.752 17.0455 263.283 16.8267 263.874 16.679C264.471 16.5256 265.087 16.4148 265.723 16.3466C266.49 16.267 267.113 16.196 267.59 16.1335C268.067 16.0653 268.414 15.9631 268.63 15.8267C268.851 15.6847 268.962 15.4659 268.962 15.1705V15.1193C268.962 14.4773 268.772 13.9801 268.391 13.6278C268.01 13.2756 267.462 13.0994 266.746 13.0994C265.99 13.0994 265.391 13.2642 264.948 13.5938C264.51 13.9233 264.215 14.3125 264.061 14.7614L261.181 14.3523C261.408 13.5568 261.783 12.892 262.306 12.358C262.829 11.8182 263.468 11.4148 264.223 11.1477C264.979 10.875 265.814 10.7386 266.729 10.7386C267.36 10.7386 267.988 10.8125 268.613 10.9602C269.238 11.108 269.809 11.3523 270.326 11.6932C270.843 12.0284 271.258 12.4858 271.57 13.0653C271.888 13.6449 272.047 14.3693 272.047 15.2386V24H269.081V22.2017H268.979C268.792 22.5653 268.527 22.9062 268.186 23.2244C267.851 23.5369 267.428 23.7898 266.917 23.983C266.411 24.1705 265.817 24.2642 265.135 24.2642ZM265.936 21.9972C266.556 21.9972 267.093 21.875 267.547 21.6307C268.002 21.3807 268.351 21.0511 268.596 20.642C268.846 20.233 268.971 19.7869 268.971 19.304V17.7614C268.874 17.8409 268.709 17.9148 268.476 17.983C268.249 18.0511 267.993 18.1108 267.709 18.1619C267.425 18.2131 267.144 18.2585 266.865 18.2983C266.587 18.3381 266.346 18.3722 266.141 18.4006C265.681 18.4631 265.269 18.5653 264.905 18.7074C264.542 18.8494 264.255 19.0483 264.044 19.304C263.834 19.554 263.729 19.8778 263.729 20.2756C263.729 20.8438 263.936 21.2727 264.351 21.5625C264.766 21.8523 265.294 21.9972 265.936 21.9972ZM285.496 14.3693L282.684 14.6761C282.604 14.392 282.465 14.125 282.266 13.875C282.073 13.625 281.811 13.4233 281.482 13.2699C281.152 13.1165 280.749 13.0398 280.272 13.0398C279.63 13.0398 279.09 13.179 278.652 13.4574C278.221 13.7358 278.008 14.0966 278.013 14.5398C278.008 14.9205 278.147 15.2301 278.431 15.4688C278.721 15.7074 279.198 15.9034 279.863 16.0568L282.096 16.5341C283.334 16.8011 284.255 17.2244 284.857 17.804C285.465 18.3835 285.772 19.142 285.777 20.0795C285.772 20.9034 285.53 21.6307 285.053 22.2614C284.581 22.8864 283.925 23.375 283.084 23.7273C282.243 24.0795 281.277 24.2557 280.186 24.2557C278.584 24.2557 277.294 23.9205 276.317 23.25C275.34 22.5739 274.758 21.6335 274.57 20.429L277.579 20.1392C277.715 20.7301 278.005 21.1761 278.448 21.4773C278.891 21.7784 279.468 21.929 280.178 21.929C280.911 21.929 281.499 21.7784 281.942 21.4773C282.391 21.1761 282.615 20.804 282.615 20.3608C282.615 19.9858 282.471 19.6761 282.181 19.4318C281.897 19.1875 281.454 19 280.851 18.8693L278.618 18.4006C277.363 18.1392 276.434 17.6989 275.831 17.0795C275.229 16.4545 274.931 15.6648 274.936 14.7102C274.931 13.9034 275.15 13.2045 275.593 12.6136C276.042 12.017 276.664 11.5568 277.459 11.233C278.26 10.9034 279.184 10.7386 280.229 10.7386C281.763 10.7386 282.971 11.0653 283.851 11.7188C284.738 12.3722 285.286 13.2557 285.496 14.3693ZM292.088 24.2642C291.259 24.2642 290.512 24.1165 289.847 23.821C289.188 23.5199 288.665 23.0767 288.279 22.4915C287.898 21.9062 287.708 21.1847 287.708 20.3267C287.708 19.5881 287.844 18.9773 288.117 18.4943C288.39 18.0114 288.762 17.625 289.233 17.3352C289.705 17.0455 290.236 16.8267 290.827 16.679C291.424 16.5256 292.04 16.4148 292.677 16.3466C293.444 16.267 294.066 16.196 294.543 16.1335C295.02 16.0653 295.367 15.9631 295.583 15.8267C295.804 15.6847 295.915 15.4659 295.915 15.1705V15.1193C295.915 14.4773 295.725 13.9801 295.344 13.6278C294.963 13.2756 294.415 13.0994 293.699 13.0994C292.944 13.0994 292.344 13.2642 291.901 13.5938C291.463 13.9233 291.168 14.3125 291.015 14.7614L288.134 14.3523C288.361 13.5568 288.736 12.892 289.259 12.358C289.782 11.8182 290.421 11.4148 291.177 11.1477C291.932 10.875 292.767 10.7386 293.682 10.7386C294.313 10.7386 294.941 10.8125 295.566 10.9602C296.191 11.108 296.762 11.3523 297.279 11.6932C297.796 12.0284 298.211 12.4858 298.523 13.0653C298.841 13.6449 299 14.3693 299 15.2386V24H296.035V22.2017H295.932C295.745 22.5653 295.481 22.9062 295.14 23.2244C294.804 23.5369 294.381 23.7898 293.87 23.983C293.364 24.1705 292.77 24.2642 292.088 24.2642ZM292.89 21.9972C293.509 21.9972 294.046 21.875 294.5 21.6307C294.955 21.3807 295.304 21.0511 295.549 20.642C295.799 20.233 295.924 19.7869 295.924 19.304V17.7614C295.827 17.8409 295.662 17.9148 295.429 17.983C295.202 18.0511 294.946 18.1108 294.662 18.1619C294.378 18.2131 294.097 18.2585 293.819 18.2983C293.54 18.3381 293.299 18.3722 293.094 18.4006C292.634 18.4631 292.222 18.5653 291.858 18.7074C291.495 18.8494 291.208 19.0483 290.998 19.304C290.787 19.554 290.682 19.8778 290.682 20.2756C290.682 20.8438 290.89 21.2727 291.304 21.5625C291.719 21.8523 292.248 21.9972 292.89 21.9972ZM306.961 24.2301C305.932 24.2301 305.012 23.9659 304.199 23.4375C303.387 22.9091 302.745 22.142 302.273 21.1364C301.802 20.1307 301.566 18.9091 301.566 17.4716C301.566 16.017 301.804 14.7898 302.282 13.7898C302.765 12.7841 303.415 12.0256 304.233 11.5142C305.052 10.9972 305.963 10.7386 306.969 10.7386C307.736 10.7386 308.367 10.8693 308.861 11.1307C309.356 11.3864 309.748 11.696 310.037 12.0597C310.327 12.4176 310.552 12.7557 310.711 13.0739H310.838V6.54545H313.932V24H310.898V21.9375H310.711C310.552 22.2557 310.321 22.5937 310.02 22.9517C309.719 23.304 309.321 23.6051 308.827 23.8551C308.333 24.1051 307.711 24.2301 306.961 24.2301ZM307.821 21.6989C308.475 21.6989 309.032 21.5227 309.492 21.1705C309.952 20.8125 310.302 20.3153 310.54 19.679C310.779 19.0426 310.898 18.3011 310.898 17.4545C310.898 16.608 310.779 15.8722 310.54 15.2472C310.307 14.6222 309.961 14.1364 309.5 13.7898C309.046 13.4432 308.486 13.2699 307.821 13.2699C307.134 13.2699 306.56 13.4489 306.1 13.8068C305.64 14.1648 305.293 14.6591 305.06 15.2898C304.827 15.9205 304.711 16.642 304.711 17.4545C304.711 18.2727 304.827 19.0028 305.06 19.6449C305.299 20.2812 305.648 20.7841 306.108 21.1534C306.574 21.517 307.145 21.6989 307.821 21.6989ZM322.93 24.2557C321.652 24.2557 320.544 23.9744 319.606 23.4119C318.669 22.8494 317.941 22.0625 317.424 21.0511C316.913 20.0398 316.657 18.858 316.657 17.5057C316.657 16.1534 316.913 14.9687 317.424 13.9517C317.941 12.9347 318.669 12.1449 319.606 11.5824C320.544 11.0199 321.652 10.7386 322.93 10.7386C324.209 10.7386 325.316 11.0199 326.254 11.5824C327.191 12.1449 327.916 12.9347 328.427 13.9517C328.944 14.9687 329.203 16.1534 329.203 17.5057C329.203 18.858 328.944 20.0398 328.427 21.0511C327.916 22.0625 327.191 22.8494 326.254 23.4119C325.316 23.9744 324.209 24.2557 322.93 24.2557ZM322.947 21.7841C323.64 21.7841 324.22 21.5937 324.686 21.2131C325.152 20.8267 325.498 20.3097 325.726 19.6619C325.959 19.0142 326.075 18.2926 326.075 17.4972C326.075 16.696 325.959 15.9716 325.726 15.3239C325.498 14.6705 325.152 14.1506 324.686 13.7642C324.22 13.3778 323.64 13.1847 322.947 13.1847C322.237 13.1847 321.646 13.3778 321.174 13.7642C320.709 14.1506 320.359 14.6705 320.126 15.3239C319.899 15.9716 319.785 16.696 319.785 17.4972C319.785 18.2926 319.899 19.0142 320.126 19.6619C320.359 20.3097 320.709 20.8267 321.174 21.2131C321.646 21.5937 322.237 21.7841 322.947 21.7841ZM343.57 24.2557C342.258 24.2557 341.124 23.983 340.169 23.4375C339.221 22.8864 338.49 22.108 337.979 21.1023C337.468 20.0909 337.212 18.9006 337.212 17.5312C337.212 16.1847 337.468 15.0028 337.979 13.9858C338.496 12.9631 339.218 12.1676 340.144 11.5994C341.07 11.0256 342.158 10.7386 343.408 10.7386C344.215 10.7386 344.976 10.8693 345.692 11.1307C346.414 11.3864 347.05 11.7841 347.601 12.3239C348.158 12.8636 348.596 13.5511 348.914 14.3864C349.232 15.2159 349.391 16.2045 349.391 17.3523V18.2983H338.661V16.2188H346.434C346.428 15.6278 346.3 15.1023 346.05 14.642C345.8 14.1761 345.451 13.8097 345.002 13.5426C344.559 13.2756 344.042 13.142 343.451 13.142C342.82 13.142 342.266 13.2955 341.789 13.6023C341.311 13.9034 340.939 14.3011 340.672 14.7955C340.411 15.2841 340.277 15.821 340.272 16.4062V18.2216C340.272 18.983 340.411 19.6364 340.689 20.1818C340.968 20.7216 341.357 21.1364 341.857 21.4261C342.357 21.7102 342.942 21.8523 343.613 21.8523C344.061 21.8523 344.468 21.7898 344.831 21.6648C345.195 21.5341 345.51 21.3438 345.777 21.0938C346.044 20.8438 346.246 20.5341 346.383 20.1648L349.263 20.4886C349.081 21.25 348.735 21.9148 348.223 22.483C347.718 23.0455 347.07 23.483 346.28 23.7955C345.49 24.1023 344.587 24.2557 343.57 24.2557ZM355.086 16.3295V24H352.001V10.9091H354.95V13.1335H355.103C355.405 12.4006 355.885 11.8182 356.544 11.3864C357.209 10.9545 358.03 10.7386 359.007 10.7386C359.91 10.7386 360.697 10.9318 361.368 11.3182C362.044 11.7045 362.566 12.2642 362.936 12.9972C363.311 13.7301 363.495 14.6193 363.49 15.6648V24H360.405V16.142C360.405 15.267 360.177 14.5824 359.723 14.0881C359.274 13.5937 358.652 13.3466 357.856 13.3466C357.316 13.3466 356.836 13.4659 356.416 13.7045C356.001 13.9375 355.674 14.2756 355.436 14.7188C355.203 15.1619 355.086 15.6989 355.086 16.3295ZM449.539 24.2557C448.233 24.2557 447.11 23.9688 446.173 23.3949C445.241 22.821 444.522 22.0284 444.017 21.017C443.517 20 443.267 18.8295 443.267 17.5057C443.267 16.1761 443.522 15.0028 444.034 13.9858C444.545 12.9631 445.267 12.1676 446.199 11.5994C447.136 11.0256 448.244 10.7386 449.522 10.7386C450.585 10.7386 451.525 10.9347 452.343 11.3267C453.167 11.7131 453.824 12.2614 454.312 12.9716C454.801 13.6761 455.079 14.5 455.147 15.4432H452.199C452.079 14.8125 451.795 14.2869 451.346 13.8665C450.903 13.4403 450.309 13.2273 449.565 13.2273C448.934 13.2273 448.38 13.3977 447.903 13.7386C447.426 14.0739 447.054 14.5568 446.787 15.1875C446.525 15.8182 446.395 16.5739 446.395 17.4545C446.395 18.3466 446.525 19.1136 446.787 19.7557C447.048 20.392 447.414 20.8835 447.886 21.2301C448.363 21.571 448.923 21.7415 449.565 21.7415C450.02 21.7415 450.426 21.6562 450.784 21.4858C451.147 21.3097 451.451 21.0568 451.696 20.7273C451.94 20.3977 452.108 19.9972 452.199 19.5256H455.147C455.074 20.4517 454.801 21.2727 454.329 21.9886C453.858 22.6989 453.216 23.2557 452.403 23.6591C451.591 24.0568 450.636 24.2557 449.539 24.2557ZM460.766 6.54545V24H457.681V6.54545H460.766ZM463.939 24V10.9091H467.024V24H463.939ZM465.49 9.05114C465.001 9.05114 464.581 8.8892 464.228 8.56534C463.876 8.23579 463.7 7.84091 463.7 7.38068C463.7 6.91477 463.876 6.51989 464.228 6.19602C464.581 5.86648 465.001 5.7017 465.49 5.7017C465.984 5.7017 466.405 5.86648 466.751 6.19602C467.103 6.51989 467.28 6.91477 467.28 7.38068C467.28 7.84091 467.103 8.23579 466.751 8.56534C466.405 8.8892 465.984 9.05114 465.49 9.05114ZM475.992 24.2557C474.679 24.2557 473.546 23.983 472.591 23.4375C471.642 22.8864 470.912 22.108 470.401 21.1023C469.89 20.0909 469.634 18.9006 469.634 17.5312C469.634 16.1847 469.89 15.0028 470.401 13.9858C470.918 12.9631 471.64 12.1676 472.566 11.5994C473.492 11.0256 474.58 10.7386 475.83 10.7386C476.637 10.7386 477.398 10.8693 478.114 11.1307C478.836 11.3864 479.472 11.7841 480.023 12.3239C480.58 12.8636 481.017 13.5511 481.336 14.3864C481.654 15.2159 481.813 16.2045 481.813 17.3523V18.2983H471.083V16.2188H478.856C478.85 15.6278 478.722 15.1023 478.472 14.642C478.222 14.1761 477.873 13.8097 477.424 13.5426C476.981 13.2756 476.463 13.142 475.873 13.142C475.242 13.142 474.688 13.2955 474.211 13.6023C473.733 13.9034 473.361 14.3011 473.094 14.7955C472.833 15.2841 472.699 15.821 472.694 16.4062V18.2216C472.694 18.983 472.833 19.6364 473.111 20.1818C473.39 20.7216 473.779 21.1364 474.279 21.4261C474.779 21.7102 475.364 21.8523 476.035 21.8523C476.483 21.8523 476.89 21.7898 477.253 21.6648C477.617 21.5341 477.932 21.3438 478.199 21.0938C478.466 20.8438 478.668 20.5341 478.804 20.1648L481.685 20.4886C481.503 21.25 481.157 21.9148 480.645 22.483C480.14 23.0455 479.492 23.483 478.702 23.7955C477.912 24.1023 477.009 24.2557 475.992 24.2557ZM487.508 16.3295V24H484.423V10.9091H487.372V13.1335H487.525C487.826 12.4006 488.307 11.8182 488.966 11.3864C489.63 10.9545 490.451 10.7386 491.429 10.7386C492.332 10.7386 493.119 10.9318 493.789 11.3182C494.466 11.7045 494.988 12.2642 495.358 12.9972C495.733 13.7301 495.917 14.6193 495.912 15.6648V24H492.826V16.142C492.826 15.267 492.599 14.5824 492.145 14.0881C491.696 13.5937 491.074 13.3466 490.278 13.3466C489.738 13.3466 489.258 13.4659 488.838 13.7045C488.423 13.9375 488.096 14.2756 487.858 14.7188C487.625 15.1619 487.508 15.6989 487.508 16.3295ZM505.585 10.9091V13.2955H498.059V10.9091H505.585ZM499.917 7.77273H503.003V20.0625C503.003 20.4773 503.065 20.7955 503.19 21.017C503.321 21.233 503.491 21.3807 503.701 21.4602C503.912 21.5398 504.145 21.5795 504.4 21.5795C504.593 21.5795 504.77 21.5653 504.929 21.5369C505.093 21.5085 505.218 21.483 505.304 21.4602L505.824 23.8722C505.659 23.929 505.423 23.9915 505.116 24.0597C504.815 24.1278 504.446 24.1676 504.008 24.179C503.235 24.2017 502.539 24.0852 501.92 23.8295C501.301 23.5682 500.809 23.1648 500.446 22.6193C500.088 22.0739 499.912 21.392 499.917 20.5739V7.77273ZM513.82 24.2557C512.508 24.2557 511.374 23.983 510.419 23.4375C509.471 22.8864 508.74 22.108 508.229 21.1023C507.718 20.0909 507.462 18.9006 507.462 17.5312C507.462 16.1847 507.718 15.0028 508.229 13.9858C508.746 12.9631 509.468 12.1676 510.394 11.5994C511.32 11.0256 512.408 10.7386 513.658 10.7386C514.465 10.7386 515.226 10.8693 515.942 11.1307C516.664 11.3864 517.3 11.7841 517.851 12.3239C518.408 12.8636 518.846 13.5511 519.164 14.3864C519.482 15.2159 519.641 16.2045 519.641 17.3523V18.2983H508.911V16.2188H516.684C516.678 15.6278 516.55 15.1023 516.3 14.642C516.05 14.1761 515.701 13.8097 515.252 13.5426C514.809 13.2756 514.292 13.142 513.701 13.142C513.07 13.142 512.516 13.2955 512.039 13.6023C511.561 13.9034 511.189 14.3011 510.922 14.7955C510.661 15.2841 510.527 15.821 510.522 16.4062V18.2216C510.522 18.983 510.661 19.6364 510.939 20.1818C511.218 20.7216 511.607 21.1364 512.107 21.4261C512.607 21.7102 513.192 21.8523 513.863 21.8523C514.311 21.8523 514.718 21.7898 515.081 21.6648C515.445 21.5341 515.76 21.3438 516.027 21.0938C516.294 20.8438 516.496 20.5341 516.633 20.1648L519.513 20.4886C519.331 21.25 518.985 21.9148 518.473 22.483C517.968 23.0455 517.32 23.483 516.53 23.7955C515.74 24.1023 514.837 24.2557 513.82 24.2557ZM532.598 14.3693L529.785 14.6761C529.706 14.392 529.566 14.125 529.368 13.875C529.174 13.625 528.913 13.4233 528.584 13.2699C528.254 13.1165 527.851 13.0398 527.373 13.0398C526.731 13.0398 526.191 13.179 525.754 13.4574C525.322 13.7358 525.109 14.0966 525.115 14.5398C525.109 14.9205 525.248 15.2301 525.532 15.4688C525.822 15.7074 526.299 15.9034 526.964 16.0568L529.197 16.5341C530.436 16.8011 531.356 17.2244 531.959 17.804C532.566 18.3835 532.873 19.142 532.879 20.0795C532.873 20.9034 532.632 21.6307 532.155 22.2614C531.683 22.8864 531.027 23.375 530.186 23.7273C529.345 24.0795 528.379 24.2557 527.288 24.2557C525.686 24.2557 524.396 23.9205 523.419 23.25C522.441 22.5739 521.859 21.6335 521.672 20.429L524.68 20.1392C524.816 20.7301 525.106 21.1761 525.549 21.4773C525.993 21.7784 526.569 21.929 527.28 21.929C528.012 21.929 528.601 21.7784 529.044 21.4773C529.493 21.1761 529.717 20.804 529.717 20.3608C529.717 19.9858 529.572 19.6761 529.282 19.4318C528.998 19.1875 528.555 19 527.953 18.8693L525.72 18.4006C524.464 18.1392 523.535 17.6989 522.933 17.0795C522.331 16.4545 522.032 15.6648 522.038 14.7102C522.032 13.9034 522.251 13.2045 522.694 12.6136C523.143 12.017 523.765 11.5568 524.561 11.233C525.362 10.9034 526.285 10.7386 527.331 10.7386C528.865 10.7386 530.072 11.0653 530.953 11.7188C531.839 12.3722 532.387 13.2557 532.598 14.3693ZM551.723 14.3693L548.91 14.6761C548.831 14.392 548.691 14.125 548.493 13.875C548.299 13.625 548.038 13.4233 547.709 13.2699C547.379 13.1165 546.976 13.0398 546.498 13.0398C545.856 13.0398 545.316 13.179 544.879 13.4574C544.447 13.7358 544.234 14.0966 544.24 14.5398C544.234 14.9205 544.373 15.2301 544.657 15.4688C544.947 15.7074 545.424 15.9034 546.089 16.0568L548.322 16.5341C549.561 16.8011 550.481 17.2244 551.084 17.804C551.691 18.3835 551.998 19.142 552.004 20.0795C551.998 20.9034 551.757 21.6307 551.28 22.2614C550.808 22.8864 550.152 23.375 549.311 23.7273C548.47 24.0795 547.504 24.2557 546.413 24.2557C544.811 24.2557 543.521 23.9205 542.544 23.25C541.566 22.5739 540.984 21.6335 540.797 20.429L543.805 20.1392C543.941 20.7301 544.231 21.1761 544.674 21.4773C545.118 21.7784 545.694 21.929 546.405 21.929C547.137 21.929 547.726 21.7784 548.169 21.4773C548.618 21.1761 548.842 20.804 548.842 20.3608C548.842 19.9858 548.697 19.6761 548.407 19.4318C548.123 19.1875 547.68 19 547.078 18.8693L544.845 18.4006C543.589 18.1392 542.66 17.6989 542.058 17.0795C541.456 16.4545 541.157 15.6648 541.163 14.7102C541.157 13.9034 541.376 13.2045 541.819 12.6136C542.268 12.017 542.89 11.5568 543.686 11.233C544.487 10.9034 545.41 10.7386 546.456 10.7386C547.99 10.7386 549.197 11.0653 550.078 11.7188C550.964 12.3722 551.512 13.2557 551.723 14.3693ZM558.315 24.2642C557.485 24.2642 556.738 24.1165 556.074 23.821C555.414 23.5199 554.892 23.0767 554.505 22.4915C554.125 21.9062 553.934 21.1847 553.934 20.3267C553.934 19.5881 554.071 18.9773 554.343 18.4943C554.616 18.0114 554.988 17.625 555.46 17.3352C555.932 17.0455 556.463 16.8267 557.054 16.679C557.65 16.5256 558.267 16.4148 558.903 16.3466C559.67 16.267 560.292 16.196 560.77 16.1335C561.247 16.0653 561.593 15.9631 561.809 15.8267C562.031 15.6847 562.142 15.4659 562.142 15.1705V15.1193C562.142 14.4773 561.951 13.9801 561.571 13.6278C561.19 13.2756 560.642 13.0994 559.926 13.0994C559.17 13.0994 558.571 13.2642 558.128 13.5938C557.69 13.9233 557.395 14.3125 557.241 14.7614L554.36 14.3523C554.588 13.5568 554.963 12.892 555.485 12.358C556.008 11.8182 556.647 11.4148 557.403 11.1477C558.159 10.875 558.994 10.7386 559.909 10.7386C560.539 10.7386 561.167 10.8125 561.792 10.9602C562.417 11.108 562.988 11.3523 563.505 11.6932C564.022 12.0284 564.437 12.4858 564.75 13.0653C565.068 13.6449 565.227 14.3693 565.227 15.2386V24H562.261V22.2017H562.159C561.971 22.5653 561.707 22.9062 561.366 23.2244C561.031 23.5369 560.608 23.7898 560.096 23.983C559.591 24.1705 558.997 24.2642 558.315 24.2642ZM559.116 21.9972C559.735 21.9972 560.272 21.875 560.727 21.6307C561.182 21.3807 561.531 21.0511 561.775 20.642C562.025 20.233 562.15 19.7869 562.15 19.304V17.7614C562.054 17.8409 561.889 17.9148 561.656 17.983C561.429 18.0511 561.173 18.1108 560.889 18.1619C560.605 18.2131 560.324 18.2585 560.045 18.2983C559.767 18.3381 559.525 18.3722 559.321 18.4006C558.86 18.4631 558.449 18.5653 558.085 18.7074C557.721 18.8494 557.434 19.0483 557.224 19.304C557.014 19.554 556.909 19.8778 556.909 20.2756C556.909 20.8438 557.116 21.2727 557.531 21.5625C557.946 21.8523 558.474 21.9972 559.116 21.9972ZM574.866 10.9091V13.2955H567.341V10.9091H574.866ZM569.199 7.77273H572.284V20.0625C572.284 20.4773 572.346 20.7955 572.471 21.017C572.602 21.233 572.772 21.3807 572.983 21.4602C573.193 21.5398 573.426 21.5795 573.682 21.5795C573.875 21.5795 574.051 21.5653 574.21 21.5369C574.375 21.5085 574.5 21.483 574.585 21.4602L575.105 23.8722C574.94 23.929 574.704 23.9915 574.397 24.0597C574.096 24.1278 573.727 24.1676 573.289 24.179C572.517 24.2017 571.821 24.0852 571.201 23.8295C570.582 23.5682 570.091 23.1648 569.727 22.6193C569.369 22.0739 569.193 21.392 569.199 20.5739V7.77273ZM577.446 24V10.9091H580.532V24H577.446ZM578.998 9.05114C578.509 9.05114 578.088 8.8892 577.736 8.56534C577.384 8.23579 577.208 7.84091 577.208 7.38068C577.208 6.91477 577.384 6.51989 577.736 6.19602C578.088 5.86648 578.509 5.7017 578.998 5.7017C579.492 5.7017 579.912 5.86648 580.259 6.19602C580.611 6.51989 580.787 6.91477 580.787 7.38068C580.787 7.84091 580.611 8.23579 580.259 8.56534C579.912 8.8892 579.492 9.05114 578.998 9.05114ZM594.051 14.3693L591.238 14.6761C591.159 14.392 591.02 14.125 590.821 13.875C590.628 13.625 590.366 13.4233 590.037 13.2699C589.707 13.1165 589.304 13.0398 588.826 13.0398C588.184 13.0398 587.645 13.179 587.207 13.4574C586.775 13.7358 586.562 14.0966 586.568 14.5398C586.562 14.9205 586.701 15.2301 586.985 15.4688C587.275 15.7074 587.753 15.9034 588.417 16.0568L590.65 16.5341C591.889 16.8011 592.809 17.2244 593.412 17.804C594.02 18.3835 594.326 19.142 594.332 20.0795C594.326 20.9034 594.085 21.6307 593.608 22.2614C593.136 22.8864 592.48 23.375 591.639 23.7273C590.798 24.0795 589.832 24.2557 588.741 24.2557C587.139 24.2557 585.849 23.9205 584.872 23.25C583.895 22.5739 583.312 21.6335 583.125 20.429L586.133 20.1392C586.27 20.7301 586.559 21.1761 587.003 21.4773C587.446 21.7784 588.022 21.929 588.733 21.929C589.466 21.929 590.054 21.7784 590.497 21.4773C590.946 21.1761 591.17 20.804 591.17 20.3608C591.17 19.9858 591.025 19.6761 590.735 19.4318C590.451 19.1875 590.008 19 589.406 18.8693L587.173 18.4006C585.917 18.1392 584.988 17.6989 584.386 17.0795C583.784 16.4545 583.485 15.6648 583.491 14.7102C583.485 13.9034 583.704 13.2045 584.147 12.6136C584.596 12.017 585.218 11.5568 586.014 11.233C586.815 10.9034 587.738 10.7386 588.784 10.7386C590.318 10.7386 591.525 11.0653 592.406 11.7188C593.292 12.3722 593.841 13.2557 594.051 14.3693ZM603.507 10.9091V13.2955H595.768V10.9091H603.507ZM597.703 24V9.67329C597.703 8.79261 597.885 8.05966 598.248 7.47443C598.618 6.8892 599.112 6.4517 599.731 6.16193C600.351 5.87216 601.038 5.72727 601.794 5.72727C602.328 5.72727 602.802 5.76989 603.217 5.85511C603.632 5.94034 603.939 6.01705 604.137 6.08523L603.524 8.47159C603.393 8.43182 603.228 8.39204 603.03 8.35227C602.831 8.30682 602.609 8.28409 602.365 8.28409C601.791 8.28409 601.385 8.4233 601.146 8.7017C600.913 8.97443 600.797 9.36648 600.797 9.87784V24H597.703ZM611.226 24.2557C609.914 24.2557 608.78 23.983 607.826 23.4375C606.877 22.8864 606.147 22.108 605.635 21.1023C605.124 20.0909 604.868 18.9006 604.868 17.5312C604.868 16.1847 605.124 15.0028 605.635 13.9858C606.152 12.9631 606.874 12.1676 607.8 11.5994C608.726 11.0256 609.814 10.7386 611.064 10.7386C611.871 10.7386 612.633 10.8693 613.348 11.1307C614.07 11.3864 614.706 11.7841 615.258 12.3239C615.814 12.8636 616.252 13.5511 616.57 14.3864C616.888 15.2159 617.047 16.2045 617.047 17.3523V18.2983H606.317V16.2188H614.09C614.084 15.6278 613.956 15.1023 613.706 14.642C613.456 14.1761 613.107 13.8097 612.658 13.5426C612.215 13.2756 611.698 13.142 611.107 13.142C610.476 13.142 609.922 13.2955 609.445 13.6023C608.968 13.9034 608.596 14.3011 608.329 14.7955C608.067 15.2841 607.934 15.821 607.928 16.4062V18.2216C607.928 18.983 608.067 19.6364 608.346 20.1818C608.624 20.7216 609.013 21.1364 609.513 21.4261C610.013 21.7102 610.598 21.8523 611.269 21.8523C611.718 21.8523 612.124 21.7898 612.488 21.6648C612.851 21.5341 613.167 21.3438 613.434 21.0938C613.701 20.8438 613.902 20.5341 614.039 20.1648L616.919 20.4886C616.738 21.25 616.391 21.9148 615.88 22.483C615.374 23.0455 614.726 23.483 613.936 23.7955C613.147 24.1023 612.243 24.2557 611.226 24.2557ZM625.368 24.2557C624.061 24.2557 622.939 23.9688 622.001 23.3949C621.069 22.821 620.351 22.0284 619.845 21.017C619.345 20 619.095 18.8295 619.095 17.5057C619.095 16.1761 619.351 15.0028 619.862 13.9858C620.373 12.9631 621.095 12.1676 622.027 11.5994C622.964 11.0256 624.072 10.7386 625.351 10.7386C626.413 10.7386 627.353 10.9347 628.172 11.3267C628.995 11.7131 629.652 12.2614 630.14 12.9716C630.629 13.6761 630.907 14.5 630.976 15.4432H628.027C627.907 14.8125 627.623 14.2869 627.174 13.8665C626.731 13.4403 626.137 13.2273 625.393 13.2273C624.762 13.2273 624.209 13.3977 623.731 13.7386C623.254 14.0739 622.882 14.5568 622.615 15.1875C622.353 15.8182 622.223 16.5739 622.223 17.4545C622.223 18.3466 622.353 19.1136 622.615 19.7557C622.876 20.392 623.243 20.8835 623.714 21.2301C624.191 21.571 624.751 21.7415 625.393 21.7415C625.848 21.7415 626.254 21.6562 626.612 21.4858C626.976 21.3097 627.28 21.0568 627.524 20.7273C627.768 20.3977 627.936 19.9972 628.027 19.5256H630.976C630.902 20.4517 630.629 21.2727 630.157 21.9886C629.686 22.6989 629.044 23.2557 628.231 23.6591C627.419 24.0568 626.464 24.2557 625.368 24.2557ZM636.594 16.3295V24H633.509V6.54545H636.526V13.1335H636.679C636.986 12.3949 637.461 11.8125 638.103 11.3864C638.75 10.9545 639.574 10.7386 640.574 10.7386C641.483 10.7386 642.276 10.929 642.952 11.3097C643.628 11.6903 644.151 12.2472 644.52 12.9801C644.895 13.7131 645.083 14.608 645.083 15.6648V24H641.998V16.142C641.998 15.2614 641.77 14.5767 641.316 14.0881C640.867 13.5937 640.236 13.3466 639.424 13.3466C638.878 13.3466 638.39 13.4659 637.958 13.7045C637.532 13.9375 637.196 14.2756 636.952 14.7188C636.713 15.1619 636.594 15.6989 636.594 16.3295ZM653.938 24.2557C652.66 24.2557 651.552 23.9744 650.614 23.4119C649.677 22.8494 648.949 22.0625 648.432 21.0511C647.921 20.0398 647.665 18.858 647.665 17.5057C647.665 16.1534 647.921 14.9687 648.432 13.9517C648.949 12.9347 649.677 12.1449 650.614 11.5824C651.552 11.0199 652.66 10.7386 653.938 10.7386C655.216 10.7386 656.324 11.0199 657.262 11.5824C658.199 12.1449 658.924 12.9347 659.435 13.9517C659.952 14.9687 660.211 16.1534 660.211 17.5057C660.211 18.858 659.952 20.0398 659.435 21.0511C658.924 22.0625 658.199 22.8494 657.262 23.4119C656.324 23.9744 655.216 24.2557 653.938 24.2557ZM653.955 21.7841C654.648 21.7841 655.228 21.5937 655.694 21.2131C656.16 20.8267 656.506 20.3097 656.733 19.6619C656.966 19.0142 657.083 18.2926 657.083 17.4972C657.083 16.696 656.966 15.9716 656.733 15.3239C656.506 14.6705 656.16 14.1506 655.694 13.7642C655.228 13.3778 654.648 13.1847 653.955 13.1847C653.245 13.1847 652.654 13.3778 652.182 13.7642C651.716 14.1506 651.367 14.6705 651.134 15.3239C650.907 15.9716 650.793 16.696 650.793 17.4972C650.793 18.2926 650.907 19.0142 651.134 19.6619C651.367 20.3097 651.716 20.8267 652.182 21.2131C652.654 21.5937 653.245 21.7841 653.955 21.7841ZM673.176 14.3693L670.363 14.6761C670.284 14.392 670.145 14.125 669.946 13.875C669.753 13.625 669.491 13.4233 669.162 13.2699C668.832 13.1165 668.429 13.0398 667.951 13.0398C667.309 13.0398 666.77 13.179 666.332 13.4574C665.9 13.7358 665.687 14.0966 665.693 14.5398C665.687 14.9205 665.826 15.2301 666.11 15.4688C666.4 15.7074 666.878 15.9034 667.542 16.0568L669.775 16.5341C671.014 16.8011 671.934 17.2244 672.537 17.804C673.145 18.3835 673.451 19.142 673.457 20.0795C673.451 20.9034 673.21 21.6307 672.733 22.2614C672.261 22.8864 671.605 23.375 670.764 23.7273C669.923 24.0795 668.957 24.2557 667.866 24.2557C666.264 24.2557 664.974 23.9205 663.997 23.25C663.02 22.5739 662.437 21.6335 662.25 20.429L665.258 20.1392C665.395 20.7301 665.684 21.1761 666.128 21.4773C666.571 21.7784 667.147 21.929 667.858 21.929C668.591 21.929 669.179 21.7784 669.622 21.4773C670.071 21.1761 670.295 20.804 670.295 20.3608C670.295 19.9858 670.15 19.6761 669.86 19.4318C669.576 19.1875 669.133 19 668.531 18.8693L666.298 18.4006C665.042 18.1392 664.113 17.6989 663.511 17.0795C662.909 16.4545 662.61 15.6648 662.616 14.7102C662.61 13.9034 662.829 13.2045 663.272 12.6136C663.721 12.017 664.343 11.5568 665.139 11.233C665.94 10.9034 666.863 10.7386 667.909 10.7386C669.443 10.7386 670.65 11.0653 671.531 11.7188C672.417 12.3722 672.966 13.2557 673.176 14.3693Z" fill="black"/>
</svg>
