<svg width="661" height="83" viewBox="0 0 661 83" fill="none" xmlns="http://www.w3.org/2000/svg">
<g filter="url(#filter0_d_3558_1777)">
<rect x="500.5" y="20.5" width="59.8542" height="41.3333" rx="4.5" fill="white" stroke="#D9D9D9"/>
<path d="M524.738 59.7757L558.252 49.6333V55.6746C558.252 57.9396 556.416 59.7757 554.151 59.7757H524.738Z" fill="#FD6020"/>
<path fill-rule="evenodd" clip-rule="evenodd" d="M551.847 36.0707C553.691 36.0707 554.705 36.9236 554.705 38.5347C554.797 39.7667 553.968 40.8091 552.861 40.9987L555.35 44.5051H553.414L551.294 41.0934H551.11V44.5051H549.543V36.0707H551.847ZM551.11 39.9562H551.571C552.585 39.9562 553.046 39.4823 553.046 38.6294C553.046 37.8713 552.585 37.3974 551.571 37.3974H551.11V39.9562ZM544.103 44.5051H548.528V43.0836H545.67V40.8091H548.436V39.3876H545.67V37.4922H548.528V36.0707H544.103V44.5051ZM539.494 41.7568L537.373 36.0707H535.714L539.125 44.6946H539.955L543.366 36.0707H541.706L539.494 41.7568ZM520.779 40.3349C520.779 42.7041 522.623 44.6942 524.928 44.6942C525.665 44.6942 526.311 44.5047 526.956 44.2204V42.325C526.495 42.8936 525.85 43.2727 525.112 43.2727C523.637 43.2727 522.439 42.1355 522.439 40.6192V40.4297C522.347 38.9134 523.545 37.5866 525.02 37.4918C525.758 37.4918 526.495 37.8709 526.956 38.4395V36.5442C526.403 36.1651 525.665 36.0703 525.02 36.0703C522.623 35.8808 520.779 37.8709 520.779 40.3349ZM517.922 39.2926C517 38.9136 516.723 38.724 516.723 38.2502C516.815 37.6816 517.276 37.2077 517.829 37.3025C518.29 37.3025 518.751 37.5868 519.12 37.9659L519.95 36.8287C519.305 36.2601 518.475 35.881 517.645 35.881C516.354 35.7862 515.248 36.8287 515.156 38.1554V38.2502C515.156 39.3874 515.617 40.0508 517.092 40.5246C517.461 40.6194 517.829 40.8089 518.198 40.9985C518.475 41.188 518.659 41.4723 518.659 41.8514C518.659 42.5148 518.106 43.0834 517.553 43.0834H517.461C516.723 43.0834 516.078 42.6095 515.801 41.9462L514.787 42.9886C515.34 44.0311 516.447 44.5997 517.553 44.5997C519.028 44.6944 520.226 43.5572 520.319 42.0409V41.7566C520.226 40.6194 519.765 40.0508 517.922 39.2926ZM512.575 44.5051H514.142V36.0707H512.575V44.5051ZM505.292 36.0707H507.596H508.057C510.27 36.1655 512.021 38.0609 511.929 40.3353C511.929 41.5673 511.376 42.7045 510.454 43.5574C509.625 44.2208 508.61 44.5999 507.596 44.5051H505.292V36.0707ZM507.32 43.0838C508.057 43.1786 508.887 42.8943 509.44 42.4204C509.993 41.8518 510.27 41.0937 510.27 40.2407C510.27 39.4826 509.993 38.7245 509.44 38.1558C508.887 37.682 508.057 37.3977 507.32 37.4925H506.859V43.0838H507.32Z" fill="black"/>
<path fill-rule="evenodd" clip-rule="evenodd" d="M531.658 35.875C529.353 35.875 527.417 37.7704 527.417 40.2343C527.417 42.6036 529.261 44.5937 531.658 44.6885C534.055 44.7832 535.899 42.7931 535.991 40.3291C535.899 37.8651 534.055 35.875 531.658 35.875V35.875Z" fill="#FD6020"/>
</g>
<g filter="url(#filter1_d_3558_1777)">
<rect x="420.5" y="20.5" width="59.8542" height="41.3333" rx="4.5" fill="white" stroke="#D9D9D9"/>
<path fill-rule="evenodd" clip-rule="evenodd" d="M452.697 34.3614L449.606 35.0345V32.4919L452.697 31.8313V34.3614ZM440.135 33.2769L437.13 33.9251L437.117 43.9085C437.117 45.7531 438.484 47.1116 440.307 47.1116C441.317 47.1116 442.056 46.9247 442.462 46.7003V44.1702C442.068 44.3322 440.122 44.9056 440.122 43.0609V38.6363H442.462V35.9816H440.122L440.135 33.2769ZM432.856 38.4743C432.203 38.4743 431.809 38.6613 431.809 39.1474C431.809 39.6781 432.488 39.9115 433.329 40.2012C434.701 40.6734 436.506 41.2948 436.514 43.5969C436.514 45.8279 434.753 47.1117 432.191 47.1117C431.132 47.1117 429.974 46.8998 428.829 46.4012V43.4349C429.863 44.0082 431.169 44.432 432.191 44.432C432.881 44.432 433.373 44.245 433.373 43.6717C433.373 43.0838 432.638 42.8151 431.751 42.4907C430.399 41.9966 428.693 41.3734 428.693 39.2969C428.693 37.0908 430.356 35.7697 432.856 35.7697C433.878 35.7697 434.888 35.9317 435.91 36.343V39.272C434.974 38.761 433.792 38.4743 432.856 38.4743ZM468.584 35.7697C471.503 35.7697 473.03 38.2874 473.03 41.4781C473.03 41.6504 473.022 41.9385 473.015 42.1828C473.01 42.3626 473.005 42.5186 473.005 42.5873H466.983C467.118 44.058 468.178 44.4818 469.372 44.4818C470.591 44.4818 471.552 44.2201 472.39 43.7963V46.2891C471.552 46.7627 470.444 47.0992 468.978 47.0992C465.973 47.0992 463.879 45.2047 463.879 41.4531C463.879 38.2874 465.653 35.7697 468.584 35.7697ZM468.572 38.2998C467.796 38.2998 466.946 38.8856 466.946 40.294H470.123C470.123 38.8856 469.323 38.2998 468.572 38.2998ZM446.293 36.9042L446.096 35.9818H443.436V46.8876H446.515V39.4966C447.241 38.5369 448.473 38.7114 448.855 38.8485V35.9818C448.46 35.8323 447.019 35.5581 446.293 36.9042ZM449.605 35.9816H452.697V46.8873H449.605V35.9816ZM459.126 35.7697C457.919 35.7697 457.143 36.343 456.712 36.7419L456.552 35.9691H453.842V50.5018L456.921 49.8412L456.933 46.314C457.377 46.6381 458.029 47.0992 459.113 47.0992C461.318 47.0992 463.325 45.3044 463.325 41.3534C463.313 37.739 461.281 35.7697 459.126 35.7697ZM458.387 44.3568C457.66 44.3568 457.229 44.095 456.933 43.771L456.921 39.147C457.241 38.7855 457.685 38.5362 458.387 38.5362C459.507 38.5362 460.283 39.8075 460.283 41.4403C460.283 43.1104 459.52 44.3568 458.387 44.3568Z" fill="#6461FC"/>
</g>
<g filter="url(#filter2_d_3558_1777)">
<rect x="580.5" y="20.5" width="59.8542" height="41.3333" rx="4.5" fill="white" stroke="#D9D9D9"/>
<path fill-rule="evenodd" clip-rule="evenodd" d="M597.463 46.8833H594.719C594.531 46.8833 594.371 47.0198 594.342 47.2051L593.232 54.2413C593.21 54.3802 593.318 54.5054 593.458 54.5054H594.768C594.956 54.5054 595.116 54.3689 595.145 54.1832L595.444 52.2855C595.473 52.0996 595.633 51.9633 595.821 51.9633H596.689C598.497 51.9633 599.54 51.0886 599.813 49.3554C599.935 48.5971 599.818 48.0012 599.463 47.5838C599.073 47.1258 598.381 46.8833 597.463 46.8833ZM597.779 49.4532C597.629 50.4378 596.877 50.4378 596.149 50.4378H595.735L596.026 48.5989C596.043 48.4879 596.139 48.406 596.252 48.406H596.442C596.937 48.406 597.404 48.406 597.646 48.6884C597.79 48.857 597.834 49.1073 597.779 49.4532ZM605.665 49.4216H604.351C604.239 49.4216 604.142 49.5035 604.125 49.6147L604.067 49.9822L603.975 49.8491C603.69 49.4361 603.056 49.2982 602.423 49.2982C600.971 49.2982 599.731 50.3979 599.489 51.9407C599.364 52.7101 599.542 53.4459 599.979 53.9591C600.379 54.4309 600.952 54.6275 601.634 54.6275C602.804 54.6275 603.453 53.8752 603.453 53.8752L603.394 54.2404C603.372 54.38 603.479 54.5052 603.619 54.5052H604.803C604.991 54.5052 605.15 54.3687 605.18 54.183L605.89 49.6857C605.912 49.5473 605.805 49.4216 605.665 49.4216ZM603.833 51.9791C603.706 52.7298 603.111 53.2337 602.351 53.2337C601.969 53.2337 601.664 53.1113 601.468 52.8794C601.274 52.6492 601.2 52.3213 601.262 51.9563C601.381 51.2119 601.987 50.6916 602.735 50.6916C603.108 50.6916 603.411 50.8155 603.611 51.0494C603.811 51.2858 603.891 51.6155 603.833 51.9791ZM611.343 49.4215H612.663C612.848 49.4215 612.956 49.6288 612.851 49.7805L608.459 56.1198C608.388 56.2225 608.271 56.2836 608.146 56.2836H606.827C606.641 56.2836 606.533 56.0745 606.64 55.9224L608.008 53.9922L606.553 49.7239C606.503 49.5756 606.613 49.4215 606.77 49.4215H608.068C608.236 49.4215 608.385 49.5321 608.434 49.6935L609.206 52.2713L611.027 49.5887C611.098 49.484 611.217 49.4215 611.343 49.4215Z" fill="#253B80"/>
<path fill-rule="evenodd" clip-rule="evenodd" d="M625.659 54.2412L626.785 47.0763C626.802 46.9651 626.899 46.8832 627.011 46.8828H628.279C628.419 46.8828 628.526 47.0083 628.504 47.1472L627.393 54.1831C627.365 54.3688 627.205 54.5052 627.017 54.5052H625.885C625.745 54.5052 625.637 54.3801 625.659 54.2412ZM617.035 46.8832H614.29C614.103 46.8832 613.943 47.0197 613.914 47.205L612.804 54.2412C612.782 54.3801 612.89 54.5052 613.03 54.5052H614.438C614.569 54.5052 614.681 54.4098 614.701 54.2798L615.016 52.2853C615.045 52.0995 615.205 51.9632 615.392 51.9632H616.261C618.069 51.9632 619.112 51.0885 619.384 49.3552C619.507 48.5969 619.389 48.0011 619.034 47.5837C618.644 47.1257 617.953 46.8832 617.035 46.8832ZM617.351 49.4531C617.202 50.4377 616.449 50.4377 615.722 50.4377H615.308L615.599 48.5988C615.616 48.4878 615.711 48.4059 615.824 48.4059H616.014C616.509 48.4059 616.977 48.4059 617.218 48.6883C617.362 48.8569 617.406 49.1072 617.351 49.4531ZM625.236 49.4215H623.923C623.81 49.4215 623.715 49.5034 623.698 49.6146L623.64 49.9821L623.547 49.8489C623.263 49.436 622.629 49.298 621.996 49.298C620.544 49.298 619.304 50.3978 619.062 51.9405C618.937 52.71 619.115 53.4458 619.551 53.959C619.953 54.4308 620.525 54.6274 621.206 54.6274C622.376 54.6274 623.025 53.8751 623.025 53.8751L622.967 54.2403C622.945 54.3799 623.052 54.5051 623.193 54.5051H624.376C624.563 54.5051 624.723 54.3686 624.752 54.1829L625.463 49.6855C625.485 49.5472 625.377 49.4215 625.236 49.4215ZM623.405 51.979C623.279 52.7297 622.682 53.2336 621.922 53.2336C621.541 53.2336 621.236 53.1112 621.04 52.8793C620.846 52.6491 620.773 52.3212 620.834 51.9561C620.953 51.2118 621.558 50.6915 622.306 50.6915C622.679 50.6915 622.983 50.8154 623.183 51.0493C623.383 51.2857 623.463 51.6154 623.405 51.979Z" fill="#179BD7"/>
<path d="M607.617 44.3661L607.955 42.2234L607.203 42.206H603.615L606.109 26.3948C606.116 26.347 606.142 26.3025 606.178 26.2709C606.215 26.2393 606.262 26.2219 606.311 26.2219H612.362C614.37 26.2219 615.756 26.6399 616.48 27.4649C616.819 27.8519 617.035 28.2563 617.14 28.7013C617.249 29.1683 617.251 29.7263 617.144 30.4068L617.136 30.4564V30.8925L617.476 31.0847C617.762 31.2362 617.989 31.4098 618.163 31.6084C618.453 31.9393 618.641 32.3599 618.72 32.8585C618.802 33.3712 618.775 33.9814 618.641 34.6722C618.486 35.4669 618.236 36.159 617.898 36.7253C617.587 37.2471 617.191 37.6798 616.721 38.0153C616.272 38.334 615.738 38.5759 615.135 38.7307C614.551 38.8828 613.884 38.9597 613.154 38.9597H612.683C612.346 38.9597 612.019 39.0809 611.762 39.2983C611.505 39.5202 611.335 39.8232 611.282 40.1549L611.247 40.3478L610.651 44.1242L610.624 44.2629C610.617 44.3069 610.605 44.3288 610.587 44.3436C610.57 44.357 610.547 44.3661 610.524 44.3661H607.617Z" fill="#253B80"/>
<path d="M617.797 30.5071C617.779 30.6225 617.758 30.7406 617.735 30.8618C616.937 34.9583 614.207 36.3735 610.721 36.3735H608.946C608.52 36.3735 608.16 36.6831 608.094 37.1036L607.185 42.8675L606.928 44.5012C606.885 44.7773 607.097 45.0263 607.376 45.0263H610.524C610.897 45.0263 611.214 44.7554 611.273 44.3878L611.304 44.2277L611.896 40.466L611.934 40.2597C611.992 39.8908 612.31 39.6199 612.683 39.6199H613.153C616.204 39.6199 618.592 38.3815 619.29 34.7977C619.581 33.3006 619.43 32.0506 618.659 31.1714C618.425 30.9063 618.136 30.6864 617.797 30.5071Z" fill="#179BD7"/>
<path d="M616.962 30.1741C616.84 30.1386 616.714 30.1063 616.585 30.0773C616.456 30.049 616.323 30.0238 616.186 30.0019C615.707 29.9245 615.183 29.8877 614.621 29.8877H609.879C609.762 29.8877 609.651 29.9141 609.552 29.9619C609.333 30.067 609.171 30.2741 609.132 30.5275L608.123 36.917L608.094 37.1034C608.16 36.6829 608.519 36.3733 608.946 36.3733H610.721C614.207 36.3733 616.937 34.9575 617.735 30.8617C617.758 30.7404 617.779 30.6224 617.797 30.5069C617.595 30.3998 617.376 30.3082 617.141 30.2302C617.083 30.2108 617.023 30.1921 616.962 30.1741Z" fill="#222D65"/>
<path d="M609.132 30.5277C609.171 30.2742 609.334 30.0672 609.552 29.9627C609.652 29.9149 609.762 29.8885 609.879 29.8885H614.621C615.183 29.8885 615.708 29.9253 616.186 30.0027C616.323 30.0246 616.456 30.0498 616.585 30.0781C616.714 30.1072 616.84 30.1394 616.962 30.1749C617.023 30.193 617.083 30.2116 617.141 30.2304C617.377 30.3084 617.595 30.4006 617.797 30.5071C618.035 28.9932 617.795 27.9625 616.977 27.0292C616.075 26.0017 614.446 25.5618 612.362 25.5618H606.312C605.886 25.5618 605.523 25.8714 605.457 26.2926L602.937 42.2663C602.887 42.5823 603.131 42.8675 603.45 42.8675H607.185L608.123 36.9172L609.132 30.5277Z" fill="#253B80"/>
</g>
<g filter="url(#filter3_d_3558_1777)">
<rect x="260.5" y="20.5" width="59.8542" height="41.3333" rx="4.5" fill="white" stroke="#D9D9D9"/>
<path fill-rule="evenodd" clip-rule="evenodd" d="M288.741 47.7951V42.4665H291.452C292.563 42.4665 293.5 42.0889 294.264 41.3441L294.448 41.1553C295.844 39.6134 295.752 37.2113 294.264 35.7847C293.521 35.0295 292.501 34.6204 291.452 34.6414H287.1V47.7951H288.741ZM288.741 40.8511V36.2568H291.493C292.084 36.2568 292.645 36.4875 293.063 36.9071C293.95 37.7882 293.97 39.2567 293.114 40.1693C292.696 40.6204 292.105 40.8721 291.493 40.8511H288.741ZM302.102 39.4979C301.399 38.8371 300.441 38.5015 299.228 38.5015C297.669 38.5015 296.497 39.0889 295.722 40.2532L297.169 41.1867C297.699 40.3896 298.423 39.991 299.34 39.991C299.921 39.991 300.481 40.2112 300.92 40.6098C301.348 40.9874 301.592 41.5329 301.592 42.1098V42.4979C300.96 42.1413 300.165 41.9525 299.187 41.9525C298.046 41.9525 297.128 42.2252 296.446 42.7811C295.763 43.3371 295.416 44.0713 295.416 45.0049C295.396 45.8545 295.753 46.6622 296.384 47.2077C297.026 47.7951 297.842 48.0888 298.8 48.0888C299.931 48.0888 300.828 47.5748 301.511 46.5468H301.582V47.7951H303.152V42.2462C303.152 41.0819 302.805 40.1588 302.102 39.4979ZM297.648 46.1378C297.312 45.886 297.108 45.4769 297.108 45.0364C297.108 44.5434 297.332 44.1343 297.771 43.8091C298.219 43.484 298.78 43.3161 299.442 43.3161C300.36 43.3056 301.073 43.5154 301.583 43.935C301.583 44.6483 301.308 45.2672 300.767 45.7916C300.278 46.2951 299.616 46.5783 298.923 46.5783C298.464 46.5888 298.015 46.4315 297.648 46.1378ZM306.678 51.7498L312.161 38.7954H310.377L307.84 45.2568H307.809L305.21 38.7954H303.427L307.024 47.2184L304.986 51.7498H306.678Z" fill="#3C4043"/>
<path d="M283.076 41.3132C283.076 40.7992 283.035 40.2852 282.954 39.7817H276.034V42.6873H279.998C279.835 43.6209 279.305 44.46 278.531 44.9845V46.8726H280.895C282.281 45.5614 283.076 43.6209 283.076 41.3132Z" fill="#4285F4"/>
<path d="M276.034 48.6971C278.011 48.6971 279.683 48.0258 280.895 46.872L278.531 44.9839C277.869 45.4454 277.023 45.7076 276.034 45.7076C274.118 45.7076 272.498 44.3755 271.917 42.5923H269.481V44.5433C270.724 47.0922 273.262 48.6971 276.034 48.6971Z" fill="#34A853"/>
<path d="M271.917 42.5922C271.611 41.6587 271.611 40.6412 271.917 39.6971V37.7566H269.481C268.431 39.8859 268.431 42.4034 269.481 44.5328L271.917 42.5922Z" fill="#FBBC04"/>
<path d="M276.034 36.5822C277.084 36.5612 278.093 36.9703 278.847 37.7151L280.946 35.5543C279.611 34.2746 277.858 33.5718 276.034 33.5927C273.262 33.5927 270.724 35.2081 269.481 37.757L271.917 39.7081C272.498 37.9144 274.118 36.5822 276.034 36.5822Z" fill="#EA4335"/>
</g>
<g filter="url(#filter4_d_3558_1777)">
<rect x="340.5" y="20.5" width="59.8542" height="41.3333" rx="4.5" fill="white" stroke="#D9D9D9"/>
<path fill-rule="evenodd" clip-rule="evenodd" d="M354.511 35.7569C355.329 35.8269 356.146 35.3373 356.657 34.7166C357.159 34.0784 357.491 33.2216 357.406 32.3474C356.682 32.3824 355.788 32.837 355.278 33.4752C354.809 34.0259 354.409 34.9177 354.511 35.7569ZM364.233 47.0174V33.388H369.213C371.784 33.388 373.581 35.2065 373.581 37.8641C373.581 40.5218 371.75 42.3577 369.145 42.3577H366.293V47.0174H364.233ZM357.397 35.9228C356.677 35.8802 356.02 36.1452 355.49 36.3591L355.49 36.3591C355.148 36.4968 354.859 36.6134 354.639 36.6134C354.392 36.6134 354.091 36.4906 353.753 36.3527C353.31 36.172 352.804 35.9653 352.272 35.9753C351.055 35.9927 349.923 36.7009 349.301 37.8286C348.024 40.0842 348.969 43.4237 350.204 45.2596C350.808 46.1688 351.532 47.1655 352.485 47.1305C352.905 47.1142 353.206 46.9828 353.519 46.8467C353.878 46.69 354.252 46.5273 354.835 46.5273C355.398 46.5273 355.755 46.6858 356.098 46.8379C356.424 46.9826 356.737 47.1215 357.202 47.113C358.189 47.0955 358.81 46.2038 359.415 45.2946C360.067 44.3188 360.354 43.3665 360.397 43.2219L360.397 43.2219L360.402 43.2052C360.401 43.2041 360.393 43.2003 360.379 43.1937L360.379 43.1936L360.379 43.1936C360.161 43.0911 358.494 42.3076 358.478 40.2066C358.462 38.443 359.8 37.5495 360.011 37.4089L360.011 37.4088C360.024 37.4003 360.032 37.3945 360.036 37.3915C359.185 36.0976 357.857 35.9578 357.397 35.9228ZM377.344 47.1219C378.638 47.1219 379.838 46.4488 380.383 45.3822H380.425V47.017H382.332V40.233C382.332 38.2659 380.8 36.9983 378.442 36.9983C376.254 36.9983 374.636 38.2834 374.577 40.0494H376.433C376.586 39.2101 377.344 38.6593 378.382 38.6593C379.642 38.6593 380.349 39.2626 380.349 40.3728V41.1247L377.778 41.282C375.386 41.4307 374.092 42.436 374.092 44.1845C374.092 45.9505 375.428 47.1219 377.344 47.1219ZM377.897 45.5045C376.799 45.5045 376.101 44.9625 376.101 44.132C376.101 43.2752 376.773 42.7769 378.059 42.6983L380.349 42.5496V43.319C380.349 44.5953 379.293 45.5045 377.897 45.5045ZM388.658 47.5503C387.832 49.937 386.887 50.7238 384.878 50.7238C384.724 50.7238 384.214 50.7063 384.095 50.6713V49.0365C384.222 49.054 384.537 49.0715 384.699 49.0715C385.61 49.0715 386.121 48.6781 386.436 47.6552L386.623 47.052L383.133 37.1294H385.286L387.713 45.1811H387.755L390.181 37.1294H392.276L388.658 47.5503ZM366.293 35.1715H368.668C370.456 35.1715 371.478 36.1507 371.478 37.8729C371.478 39.5952 370.456 40.583 368.66 40.583H366.293V35.1715Z" fill="black"/>
</g>
<g filter="url(#filter5_d_3558_1777)">
<rect x="20.5" y="20.5" width="59.8542" height="41.3333" rx="4.5" fill="white" stroke="#D9D9D9"/>
<path fill-rule="evenodd" clip-rule="evenodd" d="M38.5874 48.6781H34.9008L32.1363 37.9786C32.0051 37.4864 31.7265 37.0513 31.3167 36.8462C30.2939 36.3309 29.1669 35.9207 27.9375 35.7139V35.3019H33.8762C34.6959 35.3019 35.3106 35.9207 35.4131 36.6394L36.8474 44.3573L40.5322 35.3019H44.1164L38.5874 48.6781ZM46.1654 48.6781H42.6838L45.5507 35.3019H49.0324L46.1654 48.6781ZM53.5368 39.0073C53.6393 38.2868 54.254 37.8749 54.9712 37.8749C56.0982 37.7715 57.3259 37.9783 58.3504 38.4919L58.9651 35.612C57.9406 35.2 56.8136 34.9932 55.7908 34.9932C52.4116 34.9932 49.9527 36.846 49.9527 39.4174C49.9527 41.3736 51.6944 42.4008 52.9239 43.0196C54.254 43.6366 54.7663 44.0485 54.6638 44.6655C54.6638 45.591 53.6393 46.003 52.6165 46.003C51.3871 46.003 50.1576 45.6945 49.0324 45.1791L48.4177 48.0609C49.6471 48.5744 50.9772 48.7813 52.2067 48.7813C55.9957 48.8829 58.3504 47.0319 58.3504 44.2536C58.3504 40.7549 53.5368 40.5498 53.5368 39.0073ZM70.5354 48.6781L67.7709 35.3019H64.8015C64.1868 35.3019 63.5721 35.7139 63.3671 36.3309L58.248 48.6781H61.8321L62.5475 46.7237H66.9513L67.3611 48.6781H70.5354ZM65.3137 38.9038L66.3365 43.945H63.4695L65.3137 38.9038Z" fill="#172B85"/>
</g>
<g filter="url(#filter6_d_3558_1777)">
<rect x="100.5" y="20.5" width="59.8542" height="41.3333" rx="4.5" fill="white" stroke="#D9D9D9"/>
<path fill-rule="evenodd" clip-rule="evenodd" d="M139.619 54.0735C146.963 54.0735 152.917 48.2183 152.917 40.9955C152.917 33.7727 146.963 27.9175 139.619 27.9175C136.328 27.9175 133.316 29.0935 130.994 31.0417C128.672 29.0935 125.66 27.9175 122.369 27.9175C115.025 27.9175 109.072 33.7727 109.072 40.9955C109.072 48.2183 115.025 54.0735 122.369 54.0735C125.66 54.0735 128.672 52.8974 130.994 50.9493C133.316 52.8974 136.328 54.0735 139.619 54.0735Z" fill="#ED0006"/>
<path fill-rule="evenodd" clip-rule="evenodd" d="M130.994 50.9493C133.853 48.5506 135.666 44.9813 135.666 40.9955C135.666 37.0097 133.853 33.4404 130.994 31.0416C133.316 29.0935 136.328 27.9175 139.619 27.9175C146.963 27.9175 152.917 33.7727 152.917 40.9955C152.917 48.2183 146.963 54.0735 139.619 54.0735C136.328 54.0735 133.316 52.8974 130.994 50.9493Z" fill="#F9A000"/>
<path fill-rule="evenodd" clip-rule="evenodd" d="M130.994 50.9498C133.853 48.5511 135.666 44.9818 135.666 40.996C135.666 37.0103 133.853 33.441 130.994 31.0422C128.135 33.441 126.322 37.0103 126.322 40.996C126.322 44.9818 128.135 48.5511 130.994 50.9498Z" fill="#FF5E00"/>
</g>
<g filter="url(#filter7_d_3558_1777)">
<rect x="180.5" y="20.5" width="59.8542" height="41.3333" rx="4.5" fill="#1F72CD" stroke="#D9D9D9"/>
<g filter="url(#filter8_d_3558_1777)">
<path fill-rule="evenodd" clip-rule="evenodd" d="M190.965 34.8706L185.292 47.9824H192.084L192.926 45.8918H194.85L195.692 47.9824H203.168V46.3868L203.834 47.9824H207.702L208.368 46.3531V47.9824H223.916L225.806 45.9461L227.577 47.9824L235.562 47.9993L229.871 41.4631L235.562 34.8706H227.701L225.86 36.8692L224.146 34.8706H207.231L205.779 38.2549L204.292 34.8706H197.515V36.4119L196.761 34.8706H190.965ZM214.183 36.7322H223.111L225.842 39.8127L228.661 36.7322H231.392L227.243 41.4609L231.392 46.1352H228.537L225.806 43.0189L222.973 46.1352H214.183V36.7322ZM216.388 40.3983V38.6807V38.6791H221.959L224.39 41.4259L221.851 44.1876H216.388V42.3126H221.259V40.3983H216.388ZM192.279 36.7322H195.59L199.353 45.6234V36.7322H202.98L205.887 43.1071L208.565 36.7322H212.174V46.1408H209.978L209.96 38.7683L206.759 46.1408H204.795L201.576 38.7683V46.1408H197.059L196.202 44.0315H191.575L190.721 46.1389H188.301L192.279 36.7322ZM192.366 42.082L193.89 38.3245L195.412 42.082H192.366Z" fill="white"/>
</g>
</g>
<defs>
<filter id="filter0_d_3558_1777" x="480" y="0" width="100.854" height="82.3333" filterUnits="userSpaceOnUse" color-interpolation-filters="sRGB">
<feFlood flood-opacity="0" result="BackgroundImageFix"/>
<feColorMatrix in="SourceAlpha" type="matrix" values="0 0 0 0 0 0 0 0 0 0 0 0 0 0 0 0 0 0 127 0" result="hardAlpha"/>
<feOffset/>
<feGaussianBlur stdDeviation="10"/>
<feComposite in2="hardAlpha" operator="out"/>
<feColorMatrix type="matrix" values="0 0 0 0 0 0 0 0 0 0 0 0 0 0 0 0 0 0 0.07 0"/>
<feBlend mode="normal" in2="BackgroundImageFix" result="effect1_dropShadow_3558_1777"/>
<feBlend mode="normal" in="SourceGraphic" in2="effect1_dropShadow_3558_1777" result="shape"/>
</filter>
<filter id="filter1_d_3558_1777" x="400" y="0" width="100.854" height="82.3333" filterUnits="userSpaceOnUse" color-interpolation-filters="sRGB">
<feFlood flood-opacity="0" result="BackgroundImageFix"/>
<feColorMatrix in="SourceAlpha" type="matrix" values="0 0 0 0 0 0 0 0 0 0 0 0 0 0 0 0 0 0 127 0" result="hardAlpha"/>
<feOffset/>
<feGaussianBlur stdDeviation="10"/>
<feComposite in2="hardAlpha" operator="out"/>
<feColorMatrix type="matrix" values="0 0 0 0 0 0 0 0 0 0 0 0 0 0 0 0 0 0 0.07 0"/>
<feBlend mode="normal" in2="BackgroundImageFix" result="effect1_dropShadow_3558_1777"/>
<feBlend mode="normal" in="SourceGraphic" in2="effect1_dropShadow_3558_1777" result="shape"/>
</filter>
<filter id="filter2_d_3558_1777" x="560" y="0" width="100.854" height="82.3333" filterUnits="userSpaceOnUse" color-interpolation-filters="sRGB">
<feFlood flood-opacity="0" result="BackgroundImageFix"/>
<feColorMatrix in="SourceAlpha" type="matrix" values="0 0 0 0 0 0 0 0 0 0 0 0 0 0 0 0 0 0 127 0" result="hardAlpha"/>
<feOffset/>
<feGaussianBlur stdDeviation="10"/>
<feComposite in2="hardAlpha" operator="out"/>
<feColorMatrix type="matrix" values="0 0 0 0 0 0 0 0 0 0 0 0 0 0 0 0 0 0 0.07 0"/>
<feBlend mode="normal" in2="BackgroundImageFix" result="effect1_dropShadow_3558_1777"/>
<feBlend mode="normal" in="SourceGraphic" in2="effect1_dropShadow_3558_1777" result="shape"/>
</filter>
<filter id="filter3_d_3558_1777" x="240" y="0" width="100.854" height="82.3333" filterUnits="userSpaceOnUse" color-interpolation-filters="sRGB">
<feFlood flood-opacity="0" result="BackgroundImageFix"/>
<feColorMatrix in="SourceAlpha" type="matrix" values="0 0 0 0 0 0 0 0 0 0 0 0 0 0 0 0 0 0 127 0" result="hardAlpha"/>
<feOffset/>
<feGaussianBlur stdDeviation="10"/>
<feComposite in2="hardAlpha" operator="out"/>
<feColorMatrix type="matrix" values="0 0 0 0 0 0 0 0 0 0 0 0 0 0 0 0 0 0 0.07 0"/>
<feBlend mode="normal" in2="BackgroundImageFix" result="effect1_dropShadow_3558_1777"/>
<feBlend mode="normal" in="SourceGraphic" in2="effect1_dropShadow_3558_1777" result="shape"/>
</filter>
<filter id="filter4_d_3558_1777" x="320" y="0" width="100.854" height="82.3333" filterUnits="userSpaceOnUse" color-interpolation-filters="sRGB">
<feFlood flood-opacity="0" result="BackgroundImageFix"/>
<feColorMatrix in="SourceAlpha" type="matrix" values="0 0 0 0 0 0 0 0 0 0 0 0 0 0 0 0 0 0 127 0" result="hardAlpha"/>
<feOffset/>
<feGaussianBlur stdDeviation="10"/>
<feComposite in2="hardAlpha" operator="out"/>
<feColorMatrix type="matrix" values="0 0 0 0 0 0 0 0 0 0 0 0 0 0 0 0 0 0 0.07 0"/>
<feBlend mode="normal" in2="BackgroundImageFix" result="effect1_dropShadow_3558_1777"/>
<feBlend mode="normal" in="SourceGraphic" in2="effect1_dropShadow_3558_1777" result="shape"/>
</filter>
<filter id="filter5_d_3558_1777" x="0" y="0" width="100.854" height="82.3333" filterUnits="userSpaceOnUse" color-interpolation-filters="sRGB">
<feFlood flood-opacity="0" result="BackgroundImageFix"/>
<feColorMatrix in="SourceAlpha" type="matrix" values="0 0 0 0 0 0 0 0 0 0 0 0 0 0 0 0 0 0 127 0" result="hardAlpha"/>
<feOffset/>
<feGaussianBlur stdDeviation="10"/>
<feComposite in2="hardAlpha" operator="out"/>
<feColorMatrix type="matrix" values="0 0 0 0 0 0 0 0 0 0 0 0 0 0 0 0 0 0 0.07 0"/>
<feBlend mode="normal" in2="BackgroundImageFix" result="effect1_dropShadow_3558_1777"/>
<feBlend mode="normal" in="SourceGraphic" in2="effect1_dropShadow_3558_1777" result="shape"/>
</filter>
<filter id="filter6_d_3558_1777" x="80" y="0" width="100.854" height="82.3333" filterUnits="userSpaceOnUse" color-interpolation-filters="sRGB">
<feFlood flood-opacity="0" result="BackgroundImageFix"/>
<feColorMatrix in="SourceAlpha" type="matrix" values="0 0 0 0 0 0 0 0 0 0 0 0 0 0 0 0 0 0 127 0" result="hardAlpha"/>
<feOffset/>
<feGaussianBlur stdDeviation="10"/>
<feComposite in2="hardAlpha" operator="out"/>
<feColorMatrix type="matrix" values="0 0 0 0 0 0 0 0 0 0 0 0 0 0 0 0 0 0 0.07 0"/>
<feBlend mode="normal" in2="BackgroundImageFix" result="effect1_dropShadow_3558_1777"/>
<feBlend mode="normal" in="SourceGraphic" in2="effect1_dropShadow_3558_1777" result="shape"/>
</filter>
<filter id="filter7_d_3558_1777" x="160" y="0" width="100.854" height="82.3333" filterUnits="userSpaceOnUse" color-interpolation-filters="sRGB">
<feFlood flood-opacity="0" result="BackgroundImageFix"/>
<feColorMatrix in="SourceAlpha" type="matrix" values="0 0 0 0 0 0 0 0 0 0 0 0 0 0 0 0 0 0 127 0" result="hardAlpha"/>
<feOffset/>
<feGaussianBlur stdDeviation="10"/>
<feComposite in2="hardAlpha" operator="out"/>
<feColorMatrix type="matrix" values="0 0 0 0 0 0 0 0 0 0 0 0 0 0 0 0 0 0 0.07 0"/>
<feBlend mode="normal" in2="BackgroundImageFix" result="effect1_dropShadow_3558_1777"/>
<feBlend mode="normal" in="SourceGraphic" in2="effect1_dropShadow_3558_1777" result="shape"/>
</filter>
<filter id="filter8_d_3558_1777" x="181.292" y="34.8706" width="58.2708" height="21.1287" filterUnits="userSpaceOnUse" color-interpolation-filters="sRGB">
<feFlood flood-opacity="0" result="BackgroundImageFix"/>
<feColorMatrix in="SourceAlpha" type="matrix" values="0 0 0 0 0 0 0 0 0 0 0 0 0 0 0 0 0 0 127 0" result="hardAlpha"/>
<feOffset dy="4"/>
<feGaussianBlur stdDeviation="2"/>
<feComposite in2="hardAlpha" operator="out"/>
<feColorMatrix type="matrix" values="0 0 0 0 0 0 0 0 0 0 0 0 0 0 0 0 0 0 0.25 0"/>
<feBlend mode="normal" in2="BackgroundImageFix" result="effect1_dropShadow_3558_1777"/>
<feBlend mode="normal" in="SourceGraphic" in2="effect1_dropShadow_3558_1777" result="shape"/>
</filter>
</defs>
</svg>
